<svg xmlns="http://www.w3.org/2000/svg" xmlns:xlink="http://www.w3.org/1999/xlink" width="137" zoomAndPan="magnify" viewBox="0 0 102.75 42" height="56" preserveAspectRatio="xMidYMid meet" version="1.0"><defs><clipPath id="672fe33a1c"><path d="M 1.074219 0.816406 L 10 0.816406 L 10 6 L 1.074219 6 Z M 1.074219 0.816406 " clip-rule="nonzero"/></clipPath><clipPath id="6e75d30b1e"><path d="M 13 0.816406 L 101.433594 0.816406 L 101.433594 40 L 13 40 Z M 13 0.816406 " clip-rule="nonzero"/></clipPath><clipPath id="4b7c3eecd5"><path d="M 27.320312 36.152344 L 37.992188 36.152344 L 37.992188 40.472656 L 27.320312 40.472656 Z M 27.320312 36.152344 " clip-rule="nonzero"/></clipPath></defs><path fill="#a47c04" d="M 28.988281 9.445312 L 19.933594 9.445312 C 19.011719 9.6875 18.324219 10.535156 18.324219 11.535156 C 18.324219 12.628906 19.144531 13.539062 20.199219 13.675781 C 20.289062 13.6875 28.535156 13.683594 28.535156 13.683594 C 29.710938 13.679688 30.660156 12.71875 30.660156 11.539062 C 30.660156 10.511719 29.945312 9.65625 28.988281 9.445312 " fill-opacity="1" fill-rule="nonzero"/><g clip-path="url(#672fe33a1c)"><path fill="#a47c04" d="M 9.230469 2.996094 C 9.207031 1.820312 8.25 0.878906 7.078125 0.882812 L 3.324219 0.882812 C 2.144531 0.882812 1.175781 1.855469 1.175781 3.042969 C 1.175781 4.136719 1.996094 5.046875 3.050781 5.183594 C 3.140625 5.195312 3.230469 5.203125 3.324219 5.203125 L 7.082031 5.199219 C 8.285156 5.195312 9.253906 4.203125 9.230469 2.996094 " fill-opacity="1" fill-rule="nonzero"/></g><path fill="#a47c04" d="M 12.433594 9.445312 L 12.234375 9.445312 C 11.355469 9.445312 10.550781 9.988281 10.253906 10.820312 C 10.175781 11.046875 10.132812 11.285156 10.132812 11.535156 C 10.132812 12.664062 11.007812 13.597656 12.109375 13.6875 C 12.207031 13.695312 12.308594 13.695312 12.40625 13.6875 L 12.410156 13.683594 C 13.585938 13.679688 14.535156 12.722656 14.535156 11.539062 C 14.535156 11.3125 14.5 11.09375 14.433594 10.886719 C 14.160156 10.019531 13.335938 9.445312 12.433594 9.445312 " fill-opacity="1" fill-rule="nonzero"/><path fill="#a47c04" d="M 25.183594 26.695312 C 25.148438 26.695312 25.117188 26.695312 25.082031 26.695312 C 24.019531 26.820312 23.1875 27.738281 23.1875 28.839844 C 23.1875 30.027344 24.15625 30.996094 25.335938 30.996094 L 26.230469 30.988281 C 27.40625 30.984375 28.359375 30.023438 28.359375 28.84375 C 28.359375 27.65625 27.402344 26.695312 26.222656 26.695312 L 25.183594 26.695312 " fill-opacity="1" fill-rule="nonzero"/><path fill="#a47c04" d="M 41.246094 28.714844 C 41.1875 27.664062 40.386719 26.828125 39.375 26.695312 L 34.789062 26.695312 C 34.34375 26.753906 33.945312 26.949219 33.628906 27.234375 C 33.300781 27.53125 33.0625 27.925781 32.964844 28.371094 C 32.929688 28.523438 32.914062 28.679688 32.914062 28.839844 C 32.914062 28.996094 32.929688 29.152344 32.964844 29.304688 C 33.0625 29.75 33.300781 30.144531 33.628906 30.441406 C 33.945312 30.726562 34.347656 30.921875 34.789062 30.980469 C 34.878906 30.992188 34.96875 30.996094 35.0625 30.996094 L 39.097656 30.996094 C 39.191406 30.996094 39.285156 30.992188 39.375 30.980469 C 40.476562 30.835938 41.3125 29.859375 41.246094 28.714844 " fill-opacity="1" fill-rule="nonzero"/><path fill="#a47c04" d="M 23.6875 20.027344 C 23.628906 18.976562 22.828125 18.140625 21.816406 18.007812 L 17.230469 18.007812 C 16.785156 18.066406 16.386719 18.257812 16.070312 18.546875 C 15.742188 18.84375 15.503906 19.238281 15.40625 19.683594 C 15.371094 19.832031 15.355469 19.988281 15.355469 20.148438 C 15.355469 20.308594 15.371094 20.464844 15.40625 20.613281 C 15.503906 21.0625 15.742188 21.457031 16.070312 21.753906 C 16.386719 22.039062 16.789062 22.234375 17.230469 22.289062 C 17.320312 22.300781 17.410156 22.308594 17.503906 22.308594 L 21.542969 22.308594 C 21.636719 22.308594 21.726562 22.300781 21.816406 22.289062 C 22.917969 22.148438 23.753906 21.171875 23.6875 20.027344 " fill-opacity="1" fill-rule="nonzero"/><g clip-path="url(#6e75d30b1e)"><path fill="#a47c04" d="M 100.632812 14.171875 C 99.671875 11.207031 98.015625 8.554688 95.859375 6.414062 C 92.378906 2.953125 87.59375 0.816406 82.3125 0.816406 C 81.988281 0.816406 81.667969 0.824219 81.347656 0.839844 L 15.3125 0.875 C 14.128906 0.875 13.171875 1.835938 13.167969 3.023438 C 13.167969 4.214844 14.128906 5.179688 15.316406 5.179688 L 43.53125 5.152344 C 44.558594 5.3125 45.351562 6.210938 45.351562 7.285156 C 45.351562 8.285156 44.667969 9.132812 43.742188 9.375 C 43.570312 9.417969 43.390625 9.445312 43.203125 9.445312 L 37.902344 9.445312 C 37.566406 9.53125 37.257812 9.703125 37.007812 9.929688 C 36.679688 10.226562 36.441406 10.621094 36.34375 11.066406 C 36.308594 11.21875 36.292969 11.375 36.292969 11.535156 C 36.292969 11.695312 36.308594 11.847656 36.34375 12 C 36.441406 12.445312 36.679688 12.839844 37.007812 13.136719 C 37.324219 13.421875 37.726562 13.617188 38.167969 13.675781 C 38.257812 13.6875 38.347656 13.691406 38.441406 13.691406 L 52.898438 13.691406 C 53.976562 13.832031 54.808594 14.78125 54.769531 15.910156 C 54.730469 17.078125 53.746094 17.992188 52.582031 17.992188 L 31.429688 18.007812 L 29.054688 18.007812 C 28 18.144531 27.179688 19.054688 27.179688 20.148438 C 27.179688 21.242188 28 22.152344 29.054688 22.289062 C 29.144531 22.300781 29.238281 22.308594 29.332031 22.308594 L 29.738281 22.308594 L 60.3125 22.277344 C 61.511719 22.277344 62.519531 23.261719 62.5 24.464844 C 62.484375 25.640625 61.523438 26.59375 60.351562 26.59375 L 46.511719 26.59375 C 45.457031 26.730469 44.636719 27.640625 44.636719 28.734375 C 44.636719 29.828125 45.457031 30.738281 46.511719 30.875 C 46.601562 30.886719 65.625 30.875 65.625 30.875 C 65.882812 30.875 66.128906 30.921875 66.359375 31.007812 C 67.125 31.289062 67.691406 32 67.765625 32.84375 C 67.773438 32.90625 67.773438 32.972656 67.773438 33.035156 C 67.773438 33.582031 67.570312 34.082031 67.230469 34.464844 C 66.894531 34.847656 66.425781 35.109375 65.898438 35.175781 L 43.496094 35.175781 C 42.296875 35.175781 41.292969 36.160156 41.308594 37.367188 C 41.324219 38.539062 42.285156 39.496094 43.457031 39.496094 L 81.558594 39.496094 C 81.808594 39.503906 82.0625 39.511719 82.3125 39.511719 C 92.949219 39.511719 101.574219 30.847656 101.574219 20.164062 C 101.574219 18.070312 101.242188 16.058594 100.632812 14.171875 " fill-opacity="1" fill-rule="nonzero"/></g><path fill="#ffffff" d="M 67.621094 20.164062 C 67.621094 28.3125 74.199219 34.917969 82.3125 34.917969 C 90.425781 34.917969 97.003906 28.3125 97.003906 20.164062 C 97.003906 18.570312 96.75 17.03125 96.285156 15.59375 C 95.550781 13.332031 94.289062 11.308594 92.644531 9.675781 C 89.992188 7.039062 86.34375 5.40625 82.3125 5.40625 C 74.199219 5.40625 67.621094 12.015625 67.621094 20.164062 " fill-opacity="1" fill-rule="nonzero"/><g clip-path="url(#4b7c3eecd5)"><path fill="#a47c04" d="M 37.96875 38.191406 C 37.90625 37.046875 36.964844 36.152344 35.824219 36.152344 L 29.484375 36.152344 C 28.300781 36.152344 27.332031 37.125 27.332031 38.3125 C 27.332031 39.5 28.300781 40.472656 29.484375 40.472656 L 35.824219 40.472656 C 37.058594 40.472656 38.039062 39.429688 37.96875 38.191406 " fill-opacity="1" fill-rule="nonzero"/></g><path fill="#a47c04" d="M 89.832031 20.585938 L 79.179688 27.34375 C 78.847656 27.554688 78.414062 27.316406 78.414062 26.921875 L 78.414062 13.40625 C 78.414062 13.011719 78.847656 12.773438 79.179688 12.984375 L 89.832031 19.742188 C 90.140625 19.9375 90.140625 20.390625 89.832031 20.585938 " fill-opacity="1" fill-rule="nonzero"/></svg>