<svg xmlns="http://www.w3.org/2000/svg" xmlns:xlink="http://www.w3.org/1999/xlink" width="130" zoomAndPan="magnify" viewBox="0 0 97.5 97.499997" height="130" preserveAspectRatio="xMidYMid meet" version="1.0"><defs><clipPath id="f2d1799f6d"><path d="M 3.40625 0.890625 L 89.65625 0.890625 L 89.65625 29 L 3.40625 29 Z M 3.40625 0.890625 " clip-rule="nonzero"/></clipPath><clipPath id="3191878b13"><path d="M 3.40625 63 L 89.65625 63 L 89.65625 91.640625 L 3.40625 91.640625 Z M 3.40625 63 " clip-rule="nonzero"/></clipPath></defs><g clip-path="url(#f2d1799f6d)"><path fill="#93780f" d="M 54.59375 26.140625 L 54.59375 20.027344 L 55.890625 20.027344 L 55.890625 17.125 L 54.433594 17.125 C 53.101562 14.796875 50.074219 14.394531 50.074219 14.394531 L 50.105469 13.371094 C 50.519531 13.113281 50.902344 12.816406 51.25 12.476562 C 51.601562 12.136719 51.910156 11.761719 52.179688 11.355469 C 52.445312 10.949219 52.667969 10.519531 52.84375 10.066406 C 53.019531 9.609375 53.144531 9.140625 53.21875 8.660156 C 53.292969 8.179688 53.3125 7.695312 53.28125 7.210938 C 53.253906 6.726562 53.167969 6.246094 53.035156 5.78125 C 52.902344 5.3125 52.71875 4.863281 52.484375 4.433594 C 52.253906 4.007812 51.980469 3.605469 51.660156 3.238281 C 51.34375 2.867188 50.988281 2.535156 50.597656 2.242188 C 50.210938 1.949219 49.792969 1.703125 49.347656 1.5 C 48.90625 1.296875 48.445312 1.140625 47.96875 1.039062 C 47.488281 0.933594 47.007812 0.882812 46.519531 0.882812 C 46.03125 0.882812 45.546875 0.933594 45.070312 1.039062 C 44.59375 1.140625 44.132812 1.296875 43.6875 1.5 C 43.246094 1.703125 42.828125 1.949219 42.4375 2.242188 C 42.046875 2.535156 41.695312 2.867188 41.375 3.238281 C 41.058594 3.605469 40.785156 4.007812 40.550781 4.433594 C 40.320312 4.863281 40.136719 5.3125 40.003906 5.78125 C 39.867188 6.246094 39.785156 6.726562 39.753906 7.210938 C 39.722656 7.695312 39.746094 8.179688 39.820312 8.660156 C 39.894531 9.140625 40.019531 9.609375 40.195312 10.066406 C 40.367188 10.519531 40.589844 10.949219 40.859375 11.355469 C 41.128906 11.761719 41.4375 12.136719 41.789062 12.476562 C 42.136719 12.816406 42.519531 13.113281 42.933594 13.371094 L 42.964844 14.394531 C 42.964844 14.394531 39.9375 14.796875 38.605469 17.125 L 37.15625 17.125 L 37.15625 20.027344 L 38.445312 20.027344 L 38.445312 26.140625 L 3.480469 28.953125 L 39.332031 28.953125 L 39.332031 25.945312 L 50.582031 20.027344 L 53.707031 20.027344 L 53.707031 21.164062 L 39.402344 28.953125 L 45.777344 28.953125 L 53.742188 24.765625 L 53.742188 27.941406 L 51.96875 28.953125 L 89.558594 28.953125 Z M 39.332031 22.601562 L 39.332031 20.027344 L 44.441406 20.027344 Z M 48 4.875 L 48.746094 3.089844 C 49.207031 3.308594 49.628906 3.589844 50.011719 3.933594 C 50.390625 4.277344 50.714844 4.664062 50.980469 5.101562 C 51.246094 5.539062 51.445312 6.003906 51.574219 6.5 C 51.703125 6.996094 51.757812 7.496094 51.742188 8.007812 L 49.800781 8.007812 C 49.839844 7.355469 49.695312 6.742188 49.367188 6.175781 C 49.039062 5.605469 48.585938 5.171875 48 4.875 Z M 48 4.875 " fill-opacity="1" fill-rule="nonzero"/></g><g clip-path="url(#3191878b13)"><path fill="#93780f" d="M 54.59375 66.324219 L 89.558594 63.5 L 53.707031 63.5 L 53.707031 66.546875 L 42.457031 72.4375 L 39.332031 72.4375 L 39.332031 71.3125 L 53.636719 63.515625 L 47.261719 63.515625 L 39.296875 67.707031 L 39.296875 64.527344 L 41.03125 63.53125 L 3.480469 63.53125 L 38.445312 66.355469 L 38.445312 72.46875 L 37.15625 72.46875 L 37.15625 75.367188 L 38.605469 75.367188 C 39.9375 77.703125 42.964844 78.105469 42.964844 78.105469 L 42.933594 79.125 C 42.519531 79.382812 42.136719 79.683594 41.789062 80.023438 C 41.4375 80.363281 41.128906 80.734375 40.859375 81.140625 C 40.589844 81.546875 40.367188 81.976562 40.195312 82.433594 C 40.019531 82.886719 39.894531 83.355469 39.820312 83.835938 C 39.746094 84.316406 39.722656 84.800781 39.753906 85.285156 C 39.785156 85.773438 39.867188 86.25 40.003906 86.71875 C 40.136719 87.1875 40.320312 87.632812 40.550781 88.0625 C 40.785156 88.492188 41.058594 88.890625 41.375 89.257812 C 41.695312 89.628906 42.046875 89.960938 42.4375 90.253906 C 42.828125 90.546875 43.246094 90.792969 43.6875 90.996094 C 44.132812 91.199219 44.59375 91.355469 45.070312 91.457031 C 45.546875 91.5625 46.03125 91.613281 46.519531 91.613281 C 47.007812 91.613281 47.488281 91.5625 47.96875 91.457031 C 48.445312 91.355469 48.90625 91.199219 49.347656 90.996094 C 49.792969 90.792969 50.210938 90.546875 50.597656 90.253906 C 50.988281 89.960938 51.34375 89.628906 51.660156 89.257812 C 51.980469 88.890625 52.253906 88.492188 52.484375 88.0625 C 52.71875 87.632812 52.902344 87.1875 53.035156 86.71875 C 53.167969 86.25 53.253906 85.773438 53.28125 85.285156 C 53.3125 84.800781 53.292969 84.316406 53.21875 83.835938 C 53.144531 83.355469 53.019531 82.886719 52.84375 82.433594 C 52.667969 81.976562 52.445312 81.546875 52.179688 81.140625 C 51.910156 80.734375 51.601562 80.363281 51.25 80.023438 C 50.902344 79.683594 50.519531 79.382812 50.105469 79.125 L 50.074219 78.105469 C 50.074219 78.105469 53.101562 77.703125 54.433594 75.367188 L 55.890625 75.367188 L 55.890625 72.46875 L 54.59375 72.46875 Z M 44.292969 89.375 C 43.832031 89.15625 43.410156 88.875 43.027344 88.53125 C 42.648438 88.1875 42.324219 87.800781 42.058594 87.363281 C 41.792969 86.925781 41.597656 86.460938 41.464844 85.964844 C 41.335938 85.46875 41.28125 84.96875 41.296875 84.457031 L 43.238281 84.457031 C 43.199219 85.109375 43.347656 85.722656 43.671875 86.289062 C 44 86.859375 44.453125 87.292969 45.039062 87.589844 Z M 53.707031 72.433594 L 48.597656 72.433594 L 53.707031 69.84375 Z M 53.707031 72.433594 " fill-opacity="1" fill-rule="nonzero"/></g><path fill="#93780f" d="M 70.085938 31.304688 L 70.722656 33.269531 L 72.800781 33.269531 L 71.121094 34.488281 L 71.765625 36.449219 L 70.085938 35.234375 L 68.40625 36.449219 L 69.046875 34.488281 L 67.367188 33.269531 L 69.445312 33.269531 Z M 70.085938 31.304688 " fill-opacity="1" fill-rule="nonzero"/><path fill="#93780f" d="M 22.804688 31.304688 L 23.445312 33.269531 L 25.515625 33.269531 L 23.839844 34.488281 L 24.480469 36.449219 L 22.804688 35.234375 L 21.125 36.449219 L 21.761719 34.488281 L 20.089844 33.269531 L 22.160156 33.269531 Z M 22.804688 31.304688 " fill-opacity="1" fill-rule="nonzero"/></svg>