<svg xmlns="http://www.w3.org/2000/svg" xmlns:xlink="http://www.w3.org/1999/xlink" width="130" zoomAndPan="magnify" viewBox="0 0 97.5 60" height="80" preserveAspectRatio="xMidYMid meet" version="1.0"><defs><clipPath id="02b072e372"><path d="M 0 4 L 97.003906 4 L 97.003906 44 L 0 44 Z M 0 4 " clip-rule="nonzero"/></clipPath><clipPath id="ffb7a079a6"><path d="M 79.765625 83.964844 L -57.027344 20.617188 L -28.347656 -41.3125 L 108.445312 22.035156 Z M 79.765625 83.964844 " clip-rule="nonzero"/></clipPath><clipPath id="598b3541d8"><path d="M -28.308594 -41.257812 L 108.484375 22.089844 L 79.804688 84.023438 L -56.988281 20.675781 Z M -28.308594 -41.257812 " clip-rule="nonzero"/></clipPath></defs><g clip-path="url(#02b072e372)"><g clip-path="url(#ffb7a079a6)"><g clip-path="url(#598b3541d8)"><path fill="#2b0909" d="M 70.429688 26.09375 C 71.226562 26.203125 72.183594 26.335938 73.046875 26.453125 C 72.21875 26.433594 71.386719 26.417969 70.554688 26.402344 C 70.546875 26.308594 70.507812 26.203125 70.429688 26.09375 Z M 0.5 30.839844 L 0.609375 30.566406 C 0.832031 30.601562 1.0625 30.648438 1.289062 30.6875 C 1.027344 30.738281 0.761719 30.785156 0.5 30.839844 Z M -25.878906 23.046875 C -26.179688 22.964844 -26.492188 22.898438 -26.8125 22.835938 C -26.492188 22.8125 -26.175781 22.792969 -25.855469 22.769531 C -25.695312 22.839844 -25.667969 22.929688 -25.878906 23.046875 Z M 80.980469 16.90625 C 79.5625 16.867188 82.425781 15.769531 81.027344 15.144531 C 79.609375 15.109375 76.773438 15.03125 75.355469 14.996094 C 73.960938 14.078125 76.816406 13.277344 75.421875 12.359375 C 74.027344 11.445312 68.339844 11.878906 66.933594 11.257812 C 62.691406 10.558594 69.792969 10.453125 74.046875 10.566406 C 72.648438 9.941406 76.886719 10.640625 76.902344 10.054688 C 76.929688 8.882812 76.960938 7.710938 71.308594 6.683594 C 69.898438 6.351562 71.335938 5.511719 71.351562 4.925781 C 67.09375 4.816406 62.746094 4.710938 58.355469 4.601562 C 53.957031 4.519531 49.496094 4.507812 45.046875 4.503906 C 36.140625 4.511719 27.234375 4.667969 18.695312 5.121094 C 16.964844 5.167969 14.972656 5.332031 13 5.441406 C 12 5.484375 11.058594 5.601562 10.070312 5.671875 C 9.097656 5.757812 8.097656 5.8125 7.125 5.914062 C 3.207031 6.28125 -0.769531 6.667969 -4.671875 7.113281 C -12.503906 7.988281 -20.140625 8.921875 -26.90625 9.917969 C -27.929688 10.066406 -29.132812 10.132812 -30.402344 10.175781 C -31.660156 10.179688 -32.980469 10.179688 -34.257812 10.183594 C -35.539062 10.21875 -36.746094 10.167969 -37.820312 10.289062 C -38.894531 10.394531 -39.824219 10.601562 -40.5 10.921875 C -39.835938 10.964844 -39.160156 10.964844 -38.480469 10.957031 L -36.449219 10.953125 C -37.460938 11.175781 -38.484375 11.289062 -39.503906 11.335938 C -40.515625 11.347656 -41.519531 11.273438 -42.527344 11.191406 L -44.03125 11.058594 L -45.507812 10.847656 C -46.488281 10.703125 -47.488281 10.636719 -48.46875 10.5625 C -48.554688 11.140625 -48.589844 11.429688 -49.949219 11.488281 C -47.332031 12.007812 -43.257812 12 -40.546875 12.386719 L -40.570312 13.261719 C -43.355469 13.464844 -47.414062 12.589844 -50.097656 12.351562 C -50.148438 12.640625 -50.246094 13.21875 -50.296875 13.507812 C -50.339844 13.789062 -51.722656 13.574219 -53.078125 13.292969 C -52.40625 13.457031 -51.371094 13.605469 -50.34375 13.796875 C -49.832031 13.886719 -49.316406 13.980469 -48.847656 14.0625 C -48.375 14.144531 -47.9375 14.167969 -47.589844 14.210938 C -47.625 14.5 -47.699219 15.082031 -47.734375 15.371094 C -47.753906 15.519531 -48.113281 15.554688 -48.652344 15.535156 C -49.1875 15.5 -49.886719 15.359375 -50.59375 15.238281 C -50.683594 15.820312 -52.230469 16.140625 -50.839844 16.683594 C -50.117188 16.800781 -49.398438 16.964844 -48.671875 17.039062 L -46.5 17.269531 C -49.414062 17.1875 -51.648438 17.105469 -53.230469 17.375 C -54.800781 17.570312 -55.695312 17.882812 -55.804688 18.328125 C -54.234375 18.429688 -54.429688 19.335938 -52.851562 19.304688 C -53.6875 19.339844 -54.535156 19.300781 -55.332031 19.261719 L -49.464844 22.324219 C -44.9375 23.003906 -40.453125 23.21875 -36.070312 23.203125 C -33.519531 23.191406 -30.992188 23.09375 -28.488281 22.945312 C -28.160156 23.042969 -27.800781 23.140625 -27.453125 23.234375 C -26.46875 23.515625 -25.542969 23.664062 -25.691406 23.941406 C -26.402344 24.007812 -29.042969 22.5 -29.417969 23.144531 C -29.496094 23.273438 -28.253906 23.554688 -27.632812 23.699219 C -31.496094 23.101562 -33.789062 23.300781 -30.417969 24.796875 C -31.640625 24.515625 -33.308594 23.859375 -34.628906 23.679688 C -34.628906 23.683594 -34.625 23.6875 -34.621094 23.691406 C -33.980469 23.851562 -32.894531 24.230469 -32.296875 24.367188 C -33.03125 24.199219 -33.765625 24.027344 -34.5 23.859375 C -34.410156 23.980469 -34.300781 24.101562 -34.183594 24.226562 C -33.652344 24.429688 -33.113281 24.613281 -32.539062 24.746094 C -33.023438 24.636719 -33.515625 24.519531 -34.003906 24.410156 C -33.691406 24.710938 -33.316406 25.015625 -32.894531 25.316406 C -31.238281 26.128906 -29.671875 27.136719 -28.71875 27.355469 C -21.027344 29.121094 -13.203125 30.324219 -5.464844 30.890625 C -5.433594 30.632812 -5.824219 30.339844 -5.175781 30.269531 C -3.339844 30.1875 -1.882812 30.933594 -0.117188 30.980469 C -0.664062 31.097656 -1.207031 31.21875 -1.742188 31.351562 C -2.621094 31.578125 -3.664062 31.722656 -4.765625 31.875 C -5.871094 32.046875 -7.03125 32.230469 -8.15625 32.402344 C -9.277344 32.578125 -10.351562 32.855469 -11.273438 33.179688 C -12.195312 33.507812 -12.960938 33.902344 -13.457031 34.402344 L -9.921875 33.539062 C -10.757812 33.96875 -11.609375 34.289062 -12.480469 34.550781 C -12.914062 34.679688 -13.355469 34.792969 -13.792969 34.898438 C -14.234375 35.023438 -14.675781 35.136719 -15.117188 35.25 L -17.78125 35.902344 C -18.667969 36.121094 -19.53125 36.464844 -20.378906 36.824219 C -20.28125 37.105469 -20.210938 37.320312 -20.304688 37.546875 L -19.769531 37.828125 C -19.601562 37.761719 -19.433594 37.699219 -19.257812 37.632812 C -18.589844 37.375 -17.882812 37.089844 -17.164062 36.878906 C -15.726562 36.425781 -14.28125 35.980469 -13.082031 35.820312 L -12.859375 36.667969 C -13.972656 37.109375 -15.414062 37.480469 -16.871094 37.820312 C -17.519531 37.964844 -18.152344 38.152344 -18.761719 38.351562 C -18.761719 38.351562 2.960938 43.632812 7.394531 43.089844 C 17.207031 41.941406 27.277344 41.429688 37.5 41.074219 C 58.046875 40.386719 78.382812 39.652344 98.136719 41.507812 C 99.277344 41.457031 99.59375 41.273438 99.625 41.019531 C 99.652344 40.765625 99.398438 40.441406 99.429688 40.152344 C 94.882812 39.746094 90.324219 39.636719 86.953125 38.746094 C 85.8125 38.644531 88.167969 37.679688 87.070312 36.992188 C 85.925781 36.894531 83.617188 36.824219 82.464844 36.765625 C 81.359375 35.835938 83.71875 35.0625 82.605469 34.128906 C 81.492188 33.203125 76.816406 33.582031 75.675781 32.941406 C 72.195312 32.203125 78.03125 32.167969 81.535156 32.324219 C 80.398438 31.6875 83.867188 32.429688 83.898438 31.84375 C 83.960938 30.671875 84.039062 29.503906 79.363281 28.414062 C 78.195312 28.070312 79.410156 27.242188 79.4375 26.65625 C 78.0625 26.601562 76.679688 26.554688 75.289062 26.511719 C 75.300781 26.503906 75.3125 26.496094 75.320312 26.484375 C 75.640625 25.898438 76.222656 25.308594 77.378906 24.882812 C 77.957031 24.667969 78.679688 24.496094 79.585938 24.386719 C 80.039062 24.335938 80.539062 24.285156 81.085938 24.277344 C 81.632812 24.28125 82.230469 24.308594 82.886719 24.359375 C 84.910156 24.632812 87.824219 25.84375 88.585938 25.753906 C 89.78125 25.617188 86.230469 24.300781 87.425781 24.160156 C 85.582031 23.683594 83.742188 23.222656 81.902344 22.78125 C 80.0625 22.367188 78.21875 22.078125 76.378906 21.742188 L 73.621094 21.265625 L 70.867188 20.921875 C 69.03125 20.703125 67.191406 20.464844 65.359375 20.285156 C 58.03125 19.636719 50.726562 19.34375 43.328125 19.105469 C 42.058594 19.214844 39.003906 19.304688 34.984375 19.320312 C 30.988281 19.371094 26.039062 19.386719 21.019531 19.371094 C 16.042969 19.347656 10.984375 19.273438 6.648438 19.105469 L 8.90625 18.882812 L 11.140625 18.714844 C 11.878906 18.664062 12.644531 18.582031 13.359375 18.558594 L 15.515625 18.472656 L 16.59375 18.425781 C 16.953125 18.410156 17.367188 18.425781 17.753906 18.421875 L 20.101562 18.4375 C 32.640625 18.476562 45.179688 18.515625 57.675781 18.554688 C 70.210938 18.714844 82.703125 18.875 95.101562 19.035156 C 97.945312 18.820312 96.542969 18.195312 96.558594 17.609375 C 90.894531 17.460938 85.214844 17.601562 80.980469 16.90625 " fill-opacity="1" fill-rule="nonzero"/></g></g></g></svg>