<svg xmlns="http://www.w3.org/2000/svg" xmlns:xlink="http://www.w3.org/1999/xlink" width="350" zoomAndPan="magnify" viewBox="0 0 262.5 149.999998" height="200" preserveAspectRatio="xMidYMid meet" version="1.0"><defs><clipPath id="3f4483f435"><path d="M 119 48 L 246 48 L 246 105 L 119 105 Z M 119 48 " clip-rule="nonzero"/></clipPath><clipPath id="3d59eeb20b"><path d="M 50.785156 -30.160156 L 258.5 58.25 L 205.042969 183.847656 L -2.671875 95.4375 Z M 50.785156 -30.160156 " clip-rule="nonzero"/></clipPath><clipPath id="bd08503bbb"><path d="M 50.785156 -30.160156 L 258.5 58.25 L 205.042969 183.847656 L -2.671875 95.4375 Z M 50.785156 -30.160156 " clip-rule="nonzero"/></clipPath><clipPath id="dfaabaabdb"><path d="M 106 84 L 135 84 L 135 103 L 106 103 Z M 106 84 " clip-rule="nonzero"/></clipPath><clipPath id="1d251b23c3"><path d="M 50.785156 -30.160156 L 258.5 58.25 L 205.042969 183.847656 L -2.671875 95.4375 Z M 50.785156 -30.160156 " clip-rule="nonzero"/></clipPath><clipPath id="ac5fa90939"><path d="M 50.785156 -30.160156 L 258.5 58.25 L 205.042969 183.847656 L -2.671875 95.4375 Z M 50.785156 -30.160156 " clip-rule="nonzero"/></clipPath><clipPath id="002c7e6d45"><path d="M 14 0.144531 L 124 0.144531 L 124 118 L 14 118 Z M 14 0.144531 " clip-rule="nonzero"/></clipPath><clipPath id="b66a1a7e68"><path d="M 50.785156 -30.160156 L 258.5 58.25 L 205.042969 183.847656 L -2.671875 95.4375 Z M 50.785156 -30.160156 " clip-rule="nonzero"/></clipPath><clipPath id="eea65a62bb"><path d="M 50.785156 -30.160156 L 258.5 58.25 L 205.042969 183.847656 L -2.671875 95.4375 Z M 50.785156 -30.160156 " clip-rule="nonzero"/></clipPath></defs><g clip-path="url(#3f4483f435)"><g clip-path="url(#3d59eeb20b)"><g clip-path="url(#bd08503bbb)"><path fill="#33120b" d="M 127.867188 101.25 C 132.21875 103.164062 156.496094 100.933594 164.511719 100.925781 C 172.445312 100.953125 180.292969 104.230469 188.339844 104.753906 C 195.933594 105.28125 203.617188 104.234375 210.617188 101.605469 C 212.695312 100.816406 215.085938 101.121094 216.902344 102.476562 L 217.011719 102.523438 C 218.738281 103.773438 221.011719 103.902344 222.863281 102.886719 L 243.65625 90.921875 C 244.664062 90.382812 245.203125 89.261719 245.050781 88.101562 L 240.726562 57.582031 C 240.445312 55.65625 238.382812 54.585938 236.652344 55.460938 L 232.085938 57.835938 C 232.636719 58.972656 233.054688 60.117188 233.449219 61.316406 C 235.367188 67.738281 235.734375 74.46875 235.828125 81.082031 L 235.8125 85.070312 C 235.8125 85.070312 235.5625 81.097656 235.5625 81.097656 C 234.882812 74.039062 233.933594 63.519531 229.527344 57.324219 C 222.132812 51.472656 213.09375 48.269531 203.632812 48.171875 C 199.527344 48.101562 194.714844 48.179688 190.855469 49.5 C 182.929688 52.1875 175.664062 56.503906 168.019531 59.886719 C 159.128906 63.773438 149.648438 65.859375 140.394531 68.625 C 131.875 71.183594 123.304688 72.949219 120.652344 82.519531 C 119.867188 85.277344 119.714844 88.371094 120.238281 91.234375 C 121.089844 95.464844 123.511719 99.332031 127.867188 101.25 Z M 193.71875 62.0625 C 193.894531 59.367188 197.390625 57.375 201.589844 57.679688 C 205.734375 57.960938 209 60.316406 208.875 63.035156 C 208.75 65.753906 205.199219 67.722656 201 67.417969 C 196.777344 67.167969 193.539062 64.757812 193.71875 62.0625 Z M 138.980469 97.148438 C 149.46875 97.101562 160.875 97.320312 169.890625 91.167969 C 175.910156 87.347656 181.011719 82.042969 187.726562 79.167969 C 197.855469 74.648438 209.433594 77.515625 219.179688 81.792969 C 209.339844 78.183594 198.023438 75.625 188.105469 80.101562 C 181.578125 82.992188 176.5 88.242188 170.425781 92.039062 C 161.222656 98.175781 149.585938 97.734375 138.980469 97.148438 Z M 138.980469 97.148438 " fill-opacity="1" fill-rule="nonzero"/></g></g></g><g clip-path="url(#dfaabaabdb)"><g clip-path="url(#1d251b23c3)"><g clip-path="url(#ac5fa90939)"><path fill="#33120b" d="M 125.765625 84.628906 C 125.765625 84.628906 109.277344 87.988281 107.328125 92.570312 C 106.398438 94.753906 107.351562 97.222656 108.546875 99.277344 C 110.027344 101.710938 112.828125 103.03125 115.652344 102.621094 L 134.253906 99.90625 Z M 125.765625 84.628906 " fill-opacity="1" fill-rule="nonzero"/></g></g></g><g clip-path="url(#002c7e6d45)"><g clip-path="url(#b66a1a7e68)"><g clip-path="url(#eea65a62bb)"><path fill="#33120b" d="M 41.667969 114.3125 C 37.78125 112.65625 34.074219 110.433594 30.6875 107.769531 C 21.296875 100.226562 15.535156 89.785156 14.480469 78.445312 C 12.714844 59.519531 24.625 42.613281 44.84375 35.496094 C 49.480469 33.859375 54.464844 32.628906 59.789062 31.351562 C 72.769531 28.175781 86.25 24.890625 94.238281 15.082031 C 99.65625 8.429688 99.867188 1.558594 94.691406 -3.285156 C 89.203125 -8.457031 78.65625 -9.789062 71.125 -2.875 C 70.191406 -2.050781 68.804688 -2.125 67.949219 -3.003906 C 67.117188 -3.9375 67.191406 -5.324219 68.070312 -6.175781 C 77.59375 -14.882812 90.636719 -13.195312 97.683594 -6.523438 C 103.117188 -1.375 105.972656 7.703125 97.613281 17.933594 C 88.707031 28.839844 74.492188 32.324219 60.777344 35.703125 C 55.585938 36.972656 50.683594 38.171875 46.253906 39.769531 C 31.742188 44.871094 16.9375 57.644531 18.824219 78.101562 C 19.804688 88.25 24.941406 97.589844 33.375 104.335938 C 42.09375 111.335938 53.1875 114.574219 63.832031 113.242188 C 75.167969 111.8125 85.777344 106.921875 96 102.183594 C 103.96875 98.488281 112.175781 94.699219 120.898438 92.417969 C 122.074219 92.082031 123.320312 92.804688 123.636719 94.035156 C 123.972656 95.210938 123.253906 96.449219 122.019531 96.761719 C 113.71875 98.964844 105.671875 102.691406 97.878906 106.273438 C 87.320312 111.1875 76.398438 116.203125 64.378906 117.726562 C 56.84375 118.578125 48.941406 117.40625 41.667969 114.3125 Z M 41.667969 114.3125 " fill-opacity="1" fill-rule="nonzero"/></g></g></g></svg>