<svg xmlns="http://www.w3.org/2000/svg" xmlns:xlink="http://www.w3.org/1999/xlink" width="350" zoomAndPan="magnify" viewBox="0 0 262.5 149.999998" height="200" preserveAspectRatio="xMidYMid meet" version="1.0"><defs><clipPath id="8e4b5f6c86"><path d="M 25 145 L 257 145 L 257 149.855469 L 25 149.855469 Z M 25 145 " clip-rule="nonzero"/></clipPath></defs><path fill="#33120b" d="M 71.976562 107.945312 C 69.953125 106.339844 67.933594 104.738281 66.261719 103.136719 C 62.636719 99.648438 61.171875 94.5625 61.941406 89.542969 C 62.425781 86.40625 62.425781 83.269531 61.941406 80.0625 C 61.105469 73.859375 58.734375 67.726562 54.550781 62.917969 C 50.164062 57.898438 43.679688 55.738281 36.851562 57.621094 C 35.316406 58.039062 33.855469 58.734375 32.667969 59.570312 C 29.8125 61.523438 26.328125 62.289062 22.914062 61.664062 C 12.460938 59.851562 12.109375 67.378906 14.757812 67.449219 C 17.964844 67.519531 25.910156 66.679688 26.328125 73.234375 C 26.1875 76.371094 26.675781 79.855469 27.652344 83.550781 C 28.210938 85.640625 28.976562 87.660156 30.019531 89.542969 C 32.183594 93.65625 34.480469 95.957031 38.382812 98.464844 C 42.21875 100.90625 46.886719 102.4375 52.460938 101.460938 C 52.878906 101.390625 54.761719 101.113281 55.179688 101.601562 C 55.320312 101.742188 63.542969 111.570312 63.542969 111.570312 C 65.074219 113.242188 66.539062 117.839844 67.722656 122.09375 C 68.421875 118.398438 69.746094 114.425781 71.140625 110.59375 C 71.417969 109.6875 71.695312 108.851562 71.976562 107.945312 Z M 34.96875 84.175781 C 31.066406 76.300781 32.320312 67.796875 37.6875 65.148438 C 43.054688 62.5 50.582031 66.679688 54.484375 74.558594 C 58.386719 82.433594 57.132812 90.9375 51.765625 93.585938 C 46.398438 96.164062 38.871094 91.984375 34.96875 84.175781 Z M 34.96875 84.175781 " fill-opacity="1" fill-rule="nonzero"/><path fill="#33120b" d="M 66.261719 78.460938 C 67.792969 81.320312 69.605469 83.898438 71.835938 86.128906 C 75.390625 89.753906 77.132812 94.699219 76.226562 99.648438 C 74.972656 106.828125 70.789062 115.261719 69.535156 122.441406 C 69.117188 124.742188 69.328125 127.113281 70.164062 129.34375 L 77.550781 147.605469 L 94.695312 147.605469 L 88.5625 122.722656 C 87.515625 119.027344 82.847656 108.570312 83.335938 104.808594 C 83.335938 104.808594 84.242188 92.050781 84.3125 91.84375 C 84.378906 91.214844 86.054688 90.378906 86.472656 90.171875 C 91.488281 87.660156 94.414062 83.6875 96.15625 79.507812 C 97.898438 75.183594 98.386719 71.976562 97.761719 67.378906 C 97.480469 65.289062 96.925781 63.195312 96.226562 61.175781 C 91.417969 48.351562 82.359375 42.214844 73.578125 45.492188 C 66.886719 48 62.914062 53.507812 62.289062 60.199219 C 60.824219 61.382812 59.917969 61.3125 60.265625 65.84375 C 60.40625 67.449219 62.078125 68.703125 62.914062 69.191406 C 63.472656 72.464844 64.65625 75.535156 66.261719 78.460938 Z M 78.597656 122.164062 C 77.480469 122.511719 76.226562 121.882812 75.808594 120.769531 C 75.460938 119.652344 76.085938 118.398438 77.203125 117.980469 C 78.316406 117.632812 79.570312 118.261719 79.988281 119.375 C 80.40625 120.492188 79.710938 121.746094 78.597656 122.164062 Z M 77.132812 52.113281 C 83.054688 51.136719 89.050781 57.339844 90.511719 65.984375 C 91.976562 74.628906 88.28125 82.433594 82.359375 83.410156 C 76.4375 84.386719 70.441406 78.183594 68.980469 69.539062 C 67.515625 60.894531 71.207031 53.160156 77.132812 52.113281 Z M 77.132812 52.113281 " fill-opacity="1" fill-rule="nonzero"/><path fill="#33120b" d="M 213.65625 78.949219 C 211.566406 88.914062 213.238281 100 206.480469 108.433594 C 201.53125 114.636719 193.375 119.167969 186.339844 122.234375 C 186.964844 123.347656 187.59375 124.324219 188.082031 125.089844 C 189.542969 127.460938 190.171875 130.179688 189.890625 132.96875 C 196.375 121.046875 204.527344 119.445312 208.222656 119.375 C 209.265625 119.375 210.242188 118.679688 210.519531 117.632812 C 212.75 108.78125 222.648438 102.367188 231.636719 100.972656 C 245.921875 98.742188 260.835938 82.710938 250.800781 68.355469 C 242.507812 56.574219 224.527344 59.78125 217.070312 70.515625 C 215.46875 70.652344 212.472656 71.140625 211.21875 73.09375 C 209.476562 75.8125 213.65625 78.949219 213.65625 78.949219 Z M 227.945312 71.699219 C 234.355469 67.238281 242.4375 67.867188 245.992188 73.023438 C 249.546875 78.183594 247.316406 85.988281 240.90625 90.378906 C 234.496094 94.839844 226.410156 94.214844 222.855469 89.054688 C 219.230469 83.898438 221.53125 76.160156 227.945312 71.699219 Z M 227.945312 71.699219 " fill-opacity="1" fill-rule="nonzero"/><path fill="#33120b" d="M 167.101562 147.675781 L 184.597656 147.675781 L 189.542969 139.378906 C 191.007812 137.007812 191.355469 134.082031 190.589844 131.433594 C 188.429688 124.183594 184.804688 108.78125 188.289062 97.351562 C 191.84375 85.777344 204.039062 81.039062 211.007812 71.976562 C 219.09375 61.453125 214.492188 43.820312 202.296875 39.289062 C 201.460938 30.925781 190.242188 21.863281 187.382812 23.1875 C 184.945312 24.304688 194.839844 30.925781 194.5625 38.242188 C 178.53125 39.429688 174.210938 59.78125 180.273438 72.328125 C 184.175781 80.550781 184.457031 92.332031 178.394531 99.160156 C 177.695312 100 177.625 101.183594 178.253906 102.089844 C 180.34375 105.226562 183.757812 113.3125 176.722656 126.066406 C 174.558594 129.96875 171.074219 137.914062 167.101562 147.675781 Z M 195.1875 44.65625 C 201.460938 44.726562 206.546875 51.066406 206.480469 58.804688 C 206.410156 66.613281 201.25 72.882812 194.980469 72.816406 C 188.707031 72.746094 183.621094 66.402344 183.691406 58.664062 C 183.757812 50.929688 188.917969 44.65625 195.1875 44.65625 Z M 179.019531 135.546875 C 179.996094 134.5 181.667969 134.429688 182.714844 135.40625 C 183.757812 136.382812 183.828125 138.054688 182.851562 139.101562 C 181.878906 140.144531 180.207031 140.214844 179.160156 139.238281 C 178.113281 138.265625 178.042969 136.660156 179.019531 135.546875 Z M 179.019531 135.546875 " fill-opacity="1" fill-rule="nonzero"/><path fill="#33120b" d="M 103.335938 147.675781 L 127.589844 147.675781 C 128.214844 147.535156 128.632812 146.90625 128.5625 146.210938 C 128.496094 145.511719 127.867188 145.023438 127.171875 145.09375 L 109.609375 146.976562 C 108.980469 147.046875 108.421875 146.628906 108.355469 146 L 108.355469 145.929688 C 108.285156 145.304688 108.703125 144.746094 109.261719 144.675781 L 126.613281 141.46875 C 127.308594 141.332031 127.796875 140.632812 127.660156 139.867188 C 127.519531 139.238281 126.890625 138.820312 126.195312 138.890625 L 108.703125 140.773438 C 108.074219 140.84375 107.519531 140.425781 107.449219 139.796875 L 107.449219 139.726562 C 107.378906 139.101562 107.796875 138.542969 108.355469 138.472656 L 125.707031 135.265625 C 126.402344 135.128906 126.890625 134.429688 126.753906 133.664062 C 126.613281 133.035156 125.984375 132.617188 125.289062 132.6875 L 107.867188 134.570312 C 107.238281 134.640625 106.679688 134.222656 106.613281 133.59375 L 106.613281 133.523438 C 106.542969 132.898438 106.960938 132.339844 107.519531 132.269531 L 124.800781 129.0625 C 125.496094 128.925781 125.917969 128.296875 125.847656 127.601562 C 125.777344 126.902344 125.148438 126.414062 124.453125 126.484375 L 107.03125 128.367188 C 106.402344 128.4375 105.84375 128.019531 105.777344 127.390625 L 105.777344 127.320312 C 105.707031 126.695312 106.125 126.136719 106.679688 126.066406 L 123.894531 122.859375 C 124.59375 122.722656 125.078125 122.023438 124.941406 121.257812 C 124.800781 120.628906 124.171875 120.210938 123.476562 120.28125 L 106.195312 122.164062 C 105.566406 122.234375 105.007812 121.816406 104.9375 121.1875 L 104.9375 121.117188 C 104.871094 120.492188 105.289062 119.933594 105.84375 119.863281 L 122.988281 116.65625 C 123.6875 116.515625 124.171875 115.820312 124.035156 115.054688 C 123.894531 114.425781 123.269531 114.007812 122.570312 114.078125 L 105.355469 115.960938 C 104.730469 116.03125 104.171875 115.613281 104.101562 114.984375 L 104.101562 114.914062 C 104.03125 114.289062 104.453125 113.730469 105.007812 113.660156 L 122.082031 110.453125 C 122.78125 110.3125 123.199219 109.6875 123.128906 108.988281 C 123.058594 108.292969 122.429688 107.804688 121.734375 107.875 L 104.519531 109.757812 C 103.894531 109.828125 103.335938 109.40625 103.265625 108.78125 L 103.265625 108.710938 C 103.195312 108.082031 103.613281 107.527344 104.171875 107.457031 L 121.175781 104.320312 C 121.875 104.179688 122.363281 103.484375 122.222656 102.714844 C 122.082031 102.089844 121.457031 101.671875 120.757812 101.742188 L 103.613281 103.554688 C 102.988281 103.621094 102.429688 103.203125 102.359375 102.578125 L 102.359375 102.507812 C 102.289062 101.878906 102.707031 101.324219 103.265625 101.253906 L 120.269531 98.1875 C 120.96875 98.046875 121.457031 97.351562 121.316406 96.582031 C 121.175781 95.957031 120.550781 95.539062 119.851562 95.605469 L 102.777344 97.417969 C 102.152344 97.488281 101.59375 97.070312 101.523438 96.445312 C 101.453125 95.816406 101.871094 95.257812 102.429688 95.1875 L 119.363281 91.984375 C 120.0625 91.84375 120.480469 91.214844 120.410156 90.519531 C 120.339844 89.820312 119.714844 89.335938 119.015625 89.402344 L 100.828125 91.285156 C 97.480469 91.425781 95.042969 94.421875 95.53125 97.699219 Z M 103.335938 147.675781 " fill-opacity="1" fill-rule="nonzero"/><path fill="#33120b" d="M 140.761719 147.675781 L 149.890625 147.675781 C 149.261719 140.5625 150.378906 135.199219 161.039062 130.457031 L 169.613281 126.066406 C 170.167969 125.996094 170.519531 125.507812 170.519531 124.953125 C 170.449219 124.394531 169.960938 123.976562 169.402344 124.046875 L 142.78125 127.113281 C 142.433594 127.183594 142.152344 126.902344 142.152344 126.625 C 142.085938 126.277344 142.363281 125.996094 142.640625 125.996094 L 169.960938 122.023438 C 170.167969 122.023438 170.308594 121.816406 170.308594 121.535156 C 170.308594 121.328125 170.101562 121.117188 169.820312 121.1875 L 142.433594 124.324219 C 142.085938 124.394531 141.804688 124.113281 141.804688 123.765625 C 141.734375 123.417969 142.015625 123.140625 142.292969 123.140625 L 169.613281 119.167969 C 169.820312 119.167969 169.960938 118.957031 169.960938 118.679688 C 169.960938 118.46875 169.75 118.261719 169.472656 118.328125 L 142.085938 121.464844 C 141.734375 121.535156 141.457031 121.257812 141.457031 120.910156 C 141.386719 120.558594 141.667969 120.28125 141.945312 120.28125 L 169.195312 116.308594 C 169.402344 116.308594 169.542969 116.097656 169.542969 115.820312 C 169.542969 115.542969 169.332031 115.402344 169.054688 115.472656 L 141.667969 118.609375 C 141.316406 118.679688 141.039062 118.398438 141.039062 118.050781 C 140.96875 117.703125 141.25 117.421875 141.527344 117.421875 L 168.777344 113.449219 C 168.984375 113.449219 169.125 113.242188 169.125 112.960938 C 169.125 112.753906 168.914062 112.542969 168.636719 112.613281 L 141.316406 115.75 C 140.96875 115.820312 140.691406 115.542969 140.691406 115.191406 C 140.621094 114.84375 140.898438 114.566406 141.179688 114.566406 L 168.425781 110.59375 C 168.636719 110.59375 168.777344 110.382812 168.777344 110.105469 C 168.777344 109.894531 168.566406 109.6875 168.289062 109.757812 L 140.96875 112.894531 C 140.621094 112.960938 140.34375 112.683594 140.34375 112.40625 C 140.273438 112.054688 140.550781 111.777344 140.828125 111.777344 L 168.007812 107.875 C 168.21875 107.875 168.359375 107.664062 168.359375 107.386719 C 168.359375 107.175781 168.148438 106.96875 167.871094 107.039062 L 140.621094 110.175781 C 140.273438 110.246094 139.992188 109.964844 139.992188 109.6875 C 139.925781 109.339844 140.203125 109.058594 140.480469 109.058594 L 167.660156 105.15625 C 167.871094 105.15625 168.007812 104.945312 168.007812 104.667969 C 168.007812 104.460938 167.800781 104.25 167.523438 104.320312 L 140.273438 107.457031 C 139.925781 107.527344 139.644531 107.246094 139.644531 106.96875 C 139.574219 106.621094 139.855469 106.339844 140.132812 106.339844 L 167.242188 102.4375 C 167.453125 102.4375 167.589844 102.230469 167.589844 101.949219 C 167.589844 101.742188 167.382812 101.53125 167.101562 101.601562 L 139.855469 104.738281 C 139.503906 104.808594 139.226562 104.527344 139.226562 104.25 C 139.15625 103.902344 139.4375 103.621094 139.714844 103.621094 L 166.824219 99.71875 C 167.035156 99.71875 167.171875 99.511719 167.171875 99.230469 C 167.171875 99.023438 166.964844 98.8125 166.683594 98.882812 L 139.503906 102.019531 C 139.15625 102.089844 138.878906 101.808594 138.878906 101.53125 C 138.808594 101.183594 139.085938 100.90625 139.367188 100.90625 L 166.476562 97 C 166.683594 97 166.824219 96.792969 166.824219 96.511719 C 166.824219 96.304688 166.617188 96.09375 166.335938 96.164062 L 139.15625 99.300781 C 138.808594 99.371094 138.53125 99.09375 138.53125 98.8125 C 138.460938 98.464844 138.738281 98.1875 139.019531 98.1875 L 166.058594 94.28125 C 166.265625 94.28125 166.40625 94.074219 166.40625 93.792969 C 166.40625 93.515625 166.199219 93.375 165.917969 93.445312 L 138.808594 96.582031 C 138.460938 96.652344 138.183594 96.375 138.183594 96.09375 C 138.113281 95.746094 138.390625 95.46875 138.667969 95.46875 L 165.710938 91.5625 C 165.917969 91.5625 166.058594 91.355469 166.058594 91.078125 C 166.058594 90.867188 165.847656 90.660156 165.570312 90.726562 L 138.460938 93.863281 C 138.113281 93.933594 137.832031 93.65625 137.832031 93.375 C 137.761719 93.027344 138.042969 92.75 138.320312 92.75 L 165.292969 88.847656 C 165.5 88.847656 165.640625 88.636719 165.640625 88.359375 C 165.640625 88.148438 165.429688 87.941406 165.152344 88.007812 L 138.042969 91.144531 C 137.695312 91.214844 137.414062 90.9375 137.414062 90.660156 C 137.34375 90.308594 137.625 90.03125 137.902344 90.03125 L 164.875 86.128906 C 165.082031 86.128906 165.222656 85.917969 165.222656 85.640625 C 165.222656 85.359375 165.011719 85.222656 164.734375 85.292969 L 137.695312 88.429688 C 137.34375 88.496094 137.066406 88.21875 137.066406 87.871094 C 136.996094 87.523438 137.277344 87.242188 137.554688 87.242188 L 164.523438 83.339844 C 164.734375 83.339844 164.875 83.128906 164.875 82.851562 C 164.875 82.644531 164.664062 82.433594 164.386719 82.503906 L 137.34375 85.570312 C 136.996094 85.640625 136.71875 85.359375 136.71875 85.082031 C 136.648438 84.734375 136.925781 84.453125 137.207031 84.453125 L 164.105469 80.550781 C 164.316406 80.550781 164.457031 80.34375 164.457031 80.0625 C 164.457031 79.855469 164.246094 79.644531 163.96875 79.714844 L 136.996094 82.78125 C 136.648438 82.851562 136.371094 82.574219 136.371094 82.292969 C 136.300781 81.945312 136.578125 81.667969 136.859375 81.667969 L 163.757812 77.761719 C 163.96875 77.761719 164.105469 77.554688 164.105469 77.277344 C 164.105469 77.066406 163.898438 76.855469 163.617188 76.925781 L 136.648438 79.992188 C 136.300781 80.0625 136.019531 79.785156 136.019531 79.507812 C 135.953125 79.15625 136.230469 78.878906 136.507812 78.878906 L 163.339844 74.976562 C 163.550781 74.976562 163.6875 74.765625 163.6875 74.488281 C 163.6875 74.277344 163.480469 74.070312 163.199219 74.140625 L 136.230469 77.207031 C 135.882812 77.277344 135.601562 76.996094 135.601562 76.71875 C 135.535156 76.371094 135.8125 76.089844 136.089844 76.089844 L 162.921875 72.1875 C 163.132812 72.1875 163.269531 71.976562 163.269531 71.699219 C 163.269531 71.492188 163.0625 71.28125 162.78125 71.351562 L 135.882812 74.417969 C 135.535156 74.488281 135.253906 74.207031 135.253906 73.929688 C 135.183594 73.582031 135.464844 73.300781 135.742188 73.300781 L 162.574219 69.398438 C 162.78125 69.398438 162.921875 69.191406 162.921875 68.910156 C 162.921875 68.703125 162.710938 68.492188 162.433594 68.5625 L 135.535156 71.628906 C 135.183594 71.699219 134.90625 71.421875 134.90625 71.140625 C 134.835938 70.792969 135.117188 70.515625 135.394531 70.515625 L 162.15625 66.613281 C 162.363281 66.613281 162.503906 66.402344 162.503906 66.125 C 162.503906 65.914062 162.292969 65.707031 162.015625 65.773438 L 135.183594 68.839844 C 134.835938 68.910156 134.558594 68.632812 134.558594 68.355469 C 134.488281 68.003906 134.765625 67.726562 135.046875 67.726562 L 161.808594 63.824219 C 162.015625 63.824219 162.15625 63.613281 162.15625 63.335938 C 162.15625 63.125 161.945312 62.917969 161.667969 62.988281 L 134.835938 66.054688 C 134.488281 66.125 134.210938 65.84375 134.210938 65.566406 C 134.140625 65.21875 134.417969 64.9375 134.695312 64.9375 L 161.390625 61.035156 C 161.597656 61.035156 161.738281 60.824219 161.738281 60.546875 C 161.738281 60.339844 161.527344 60.128906 161.25 60.199219 L 134.417969 63.265625 C 134.070312 63.335938 133.792969 63.054688 133.792969 62.777344 C 133.722656 62.429688 134 62.152344 134.277344 62.152344 L 160.96875 58.316406 C 161.179688 58.316406 161.320312 58.109375 161.320312 57.828125 C 161.320312 57.621094 161.109375 57.410156 160.832031 57.480469 L 134.070312 60.546875 C 133.722656 60.617188 133.441406 60.339844 133.441406 59.988281 C 133.371094 59.640625 133.652344 59.363281 133.929688 59.363281 L 160.621094 55.527344 C 160.832031 55.527344 160.96875 55.320312 160.96875 55.039062 C 160.96875 54.832031 160.761719 54.621094 160.484375 54.691406 L 133.722656 57.757812 C 133.371094 57.828125 133.09375 57.550781 133.09375 57.203125 C 133.023438 56.851562 133.304688 56.574219 133.582031 56.574219 L 160.203125 52.742188 C 160.414062 52.742188 160.550781 52.53125 160.550781 52.253906 C 160.550781 52.042969 160.34375 51.835938 160.066406 51.90625 L 133.371094 54.972656 C 133.023438 55.039062 132.746094 54.761719 132.746094 54.414062 C 132.675781 54.066406 132.953125 53.785156 133.234375 53.785156 L 159.855469 49.953125 C 160.066406 49.953125 160.203125 49.742188 160.203125 49.464844 C 160.203125 49.253906 159.996094 49.046875 159.714844 49.117188 L 133.023438 52.183594 C 132.675781 52.253906 132.398438 51.972656 132.398438 51.625 C 132.328125 51.277344 132.605469 51 132.886719 51 L 159.4375 47.164062 C 159.644531 47.164062 159.785156 46.957031 159.785156 46.675781 C 159.785156 46.46875 159.578125 46.257812 159.296875 46.328125 L 132.605469 49.394531 C 132.257812 49.464844 131.980469 49.1875 131.980469 48.90625 C 131.910156 48.558594 132.1875 48.28125 132.46875 48.28125 L 159.019531 44.445312 C 159.226562 44.445312 159.367188 44.238281 159.367188 43.957031 C 159.367188 43.75 159.160156 43.539062 158.878906 43.609375 L 132.257812 46.675781 C 131.910156 46.746094 131.628906 46.46875 131.628906 46.1875 C 131.5625 45.839844 131.839844 45.5625 132.117188 45.5625 L 158.671875 41.726562 C 158.878906 41.726562 159.019531 41.519531 159.019531 41.238281 C 159.019531 41.03125 158.808594 40.820312 158.53125 40.890625 L 131.910156 43.957031 C 131.5625 44.027344 131.28125 43.75 131.28125 43.46875 C 131.210938 43.121094 131.492188 42.84375 131.769531 42.84375 L 158.253906 39.007812 C 158.460938 39.007812 158.601562 38.800781 158.601562 38.523438 C 158.601562 38.3125 158.390625 38.105469 158.113281 38.171875 L 131.5625 41.238281 C 131.210938 41.308594 130.933594 41.03125 130.933594 40.753906 C 130.863281 40.402344 131.144531 40.125 131.421875 40.125 L 157.902344 36.292969 C 158.113281 36.292969 158.253906 36.082031 158.253906 35.804688 C 158.253906 35.59375 158.042969 35.386719 157.765625 35.453125 L 131.210938 38.523438 C 130.863281 38.589844 130.585938 38.3125 130.585938 38.035156 C 130.515625 37.683594 130.792969 37.40625 131.074219 37.40625 L 157.484375 33.574219 C 157.695312 33.574219 157.835938 33.363281 157.835938 33.085938 C 157.835938 32.804688 157.625 32.667969 157.347656 32.738281 L 130.792969 35.804688 C 130.445312 35.875 130.167969 35.59375 130.167969 35.316406 C 130.097656 34.96875 130.375 34.6875 130.65625 34.6875 L 157.066406 30.855469 C 157.277344 30.855469 157.417969 30.644531 157.417969 30.367188 C 157.417969 30.15625 157.207031 29.949219 156.929688 30.019531 L 130.445312 33.085938 C 130.097656 33.15625 129.820312 32.875 129.820312 32.527344 C 129.75 32.179688 130.027344 31.898438 130.304688 31.898438 L 156.71875 28.066406 C 156.929688 28.066406 157.066406 27.859375 157.066406 27.578125 C 157.066406 27.371094 156.859375 27.160156 156.578125 27.230469 L 129.539062 30.367188 L 129.46875 29.738281 L 155.953125 26.046875 C 156.441406 25.976562 156.789062 25.488281 156.71875 25 C 156.648438 24.511719 156.230469 24.09375 155.675781 24.164062 L 128.980469 25.417969 C 125.429688 25.835938 122.988281 29.113281 123.40625 32.597656 Z M 140.761719 147.675781 " fill-opacity="1" fill-rule="nonzero"/><g clip-path="url(#8e4b5f6c86)"><path fill="#33120b" d="M 254.007812 150.113281 L 27.441406 150.113281 C 26.117188 150.113281 25.003906 149 25.003906 147.675781 C 25.003906 146.347656 26.117188 145.234375 27.441406 145.234375 L 254.007812 145.234375 C 255.332031 145.234375 256.445312 146.347656 256.445312 147.675781 C 256.445312 149 255.402344 150.113281 254.007812 150.113281 Z M 254.007812 150.113281 " fill-opacity="1" fill-rule="nonzero"/></g></svg>