<svg xmlns="http://www.w3.org/2000/svg" xmlns:xlink="http://www.w3.org/1999/xlink" width="150" zoomAndPan="magnify" viewBox="0 0 112.5 60" height="80" preserveAspectRatio="xMidYMid meet" version="1.0"><defs><clipPath id="id1"><path d="M 0 28 L 5 28 L 5 33 L 0 33 Z M 0 28 " clip-rule="nonzero"/></clipPath><clipPath id="id2"><path d="M 0 30.132812 L 56.214844 -26.082031 L 112.429688 30.132812 L 56.214844 86.347656 Z M 0 30.132812 " clip-rule="nonzero"/></clipPath><clipPath id="id3"><path d="M 0 30.132812 L 56.214844 -26.082031 L 112.429688 30.132812 L 56.214844 86.347656 Z M 0 30.132812 " clip-rule="nonzero"/></clipPath><clipPath id="id4"><path d="M 8 20 L 13 20 L 13 25 L 8 25 Z M 8 20 " clip-rule="nonzero"/></clipPath><clipPath id="id5"><path d="M 0 30.132812 L 56.214844 -26.082031 L 112.429688 30.132812 L 56.214844 86.347656 Z M 0 30.132812 " clip-rule="nonzero"/></clipPath><clipPath id="id6"><path d="M 0 30.132812 L 56.214844 -26.082031 L 112.429688 30.132812 L 56.214844 86.347656 Z M 0 30.132812 " clip-rule="nonzero"/></clipPath><clipPath id="id7"><path d="M 16 12 L 20 12 L 20 17 L 16 17 Z M 16 12 " clip-rule="nonzero"/></clipPath><clipPath id="id8"><path d="M 0 30.132812 L 56.214844 -26.082031 L 112.429688 30.132812 L 56.214844 86.347656 Z M 0 30.132812 " clip-rule="nonzero"/></clipPath><clipPath id="id9"><path d="M 0 30.132812 L 56.214844 -26.082031 L 112.429688 30.132812 L 56.214844 86.347656 Z M 0 30.132812 " clip-rule="nonzero"/></clipPath><clipPath id="id10"><path d="M 23 5 L 28 5 L 28 10 L 23 10 Z M 23 5 " clip-rule="nonzero"/></clipPath><clipPath id="id11"><path d="M 0 30.132812 L 56.214844 -26.082031 L 112.429688 30.132812 L 56.214844 86.347656 Z M 0 30.132812 " clip-rule="nonzero"/></clipPath><clipPath id="id12"><path d="M 0 30.132812 L 56.214844 -26.082031 L 112.429688 30.132812 L 56.214844 86.347656 Z M 0 30.132812 " clip-rule="nonzero"/></clipPath><clipPath id="id13"><path d="M 8 35 L 13 35 L 13 40 L 8 40 Z M 8 35 " clip-rule="nonzero"/></clipPath><clipPath id="id14"><path d="M 0 30.132812 L 56.214844 -26.082031 L 112.429688 30.132812 L 56.214844 86.347656 Z M 0 30.132812 " clip-rule="nonzero"/></clipPath><clipPath id="id15"><path d="M 0 30.132812 L 56.214844 -26.082031 L 112.429688 30.132812 L 56.214844 86.347656 Z M 0 30.132812 " clip-rule="nonzero"/></clipPath><clipPath id="id16"><path d="M 16 28 L 20 28 L 20 33 L 16 33 Z M 16 28 " clip-rule="nonzero"/></clipPath><clipPath id="id17"><path d="M 0 30.132812 L 56.214844 -26.082031 L 112.429688 30.132812 L 56.214844 86.347656 Z M 0 30.132812 " clip-rule="nonzero"/></clipPath><clipPath id="id18"><path d="M 0 30.132812 L 56.214844 -26.082031 L 112.429688 30.132812 L 56.214844 86.347656 Z M 0 30.132812 " clip-rule="nonzero"/></clipPath><clipPath id="id19"><path d="M 23 20 L 28 20 L 28 25 L 23 25 Z M 23 20 " clip-rule="nonzero"/></clipPath><clipPath id="id20"><path d="M 0 30.132812 L 56.214844 -26.082031 L 112.429688 30.132812 L 56.214844 86.347656 Z M 0 30.132812 " clip-rule="nonzero"/></clipPath><clipPath id="id21"><path d="M 0 30.132812 L 56.214844 -26.082031 L 112.429688 30.132812 L 56.214844 86.347656 Z M 0 30.132812 " clip-rule="nonzero"/></clipPath><clipPath id="id22"><path d="M 31 12 L 36 12 L 36 17 L 31 17 Z M 31 12 " clip-rule="nonzero"/></clipPath><clipPath id="id23"><path d="M 0 30.132812 L 56.214844 -26.082031 L 112.429688 30.132812 L 56.214844 86.347656 Z M 0 30.132812 " clip-rule="nonzero"/></clipPath><clipPath id="id24"><path d="M 0 30.132812 L 56.214844 -26.082031 L 112.429688 30.132812 L 56.214844 86.347656 Z M 0 30.132812 " clip-rule="nonzero"/></clipPath><clipPath id="id25"><path d="M 39 5 L 43 5 L 43 10 L 39 10 Z M 39 5 " clip-rule="nonzero"/></clipPath><clipPath id="id26"><path d="M 0 30.132812 L 56.214844 -26.082031 L 112.429688 30.132812 L 56.214844 86.347656 Z M 0 30.132812 " clip-rule="nonzero"/></clipPath><clipPath id="id27"><path d="M 0 30.132812 L 56.214844 -26.082031 L 112.429688 30.132812 L 56.214844 86.347656 Z M 0 30.132812 " clip-rule="nonzero"/></clipPath><clipPath id="id28"><path d="M 16 43 L 20 43 L 20 48 L 16 48 Z M 16 43 " clip-rule="nonzero"/></clipPath><clipPath id="id29"><path d="M 0 30.132812 L 56.214844 -26.082031 L 112.429688 30.132812 L 56.214844 86.347656 Z M 0 30.132812 " clip-rule="nonzero"/></clipPath><clipPath id="id30"><path d="M 0 30.132812 L 56.214844 -26.082031 L 112.429688 30.132812 L 56.214844 86.347656 Z M 0 30.132812 " clip-rule="nonzero"/></clipPath><clipPath id="id31"><path d="M 23 35 L 28 35 L 28 40 L 23 40 Z M 23 35 " clip-rule="nonzero"/></clipPath><clipPath id="id32"><path d="M 0 30.132812 L 56.214844 -26.082031 L 112.429688 30.132812 L 56.214844 86.347656 Z M 0 30.132812 " clip-rule="nonzero"/></clipPath><clipPath id="id33"><path d="M 0 30.132812 L 56.214844 -26.082031 L 112.429688 30.132812 L 56.214844 86.347656 Z M 0 30.132812 " clip-rule="nonzero"/></clipPath><clipPath id="id34"><path d="M 31 28 L 36 28 L 36 33 L 31 33 Z M 31 28 " clip-rule="nonzero"/></clipPath><clipPath id="id35"><path d="M 0 30.132812 L 56.214844 -26.082031 L 112.429688 30.132812 L 56.214844 86.347656 Z M 0 30.132812 " clip-rule="nonzero"/></clipPath><clipPath id="id36"><path d="M 0 30.132812 L 56.214844 -26.082031 L 112.429688 30.132812 L 56.214844 86.347656 Z M 0 30.132812 " clip-rule="nonzero"/></clipPath><clipPath id="id37"><path d="M 39 20 L 43 20 L 43 25 L 39 25 Z M 39 20 " clip-rule="nonzero"/></clipPath><clipPath id="id38"><path d="M 0 30.132812 L 56.214844 -26.082031 L 112.429688 30.132812 L 56.214844 86.347656 Z M 0 30.132812 " clip-rule="nonzero"/></clipPath><clipPath id="id39"><path d="M 0 30.132812 L 56.214844 -26.082031 L 112.429688 30.132812 L 56.214844 86.347656 Z M 0 30.132812 " clip-rule="nonzero"/></clipPath><clipPath id="id40"><path d="M 46 12 L 51 12 L 51 17 L 46 17 Z M 46 12 " clip-rule="nonzero"/></clipPath><clipPath id="id41"><path d="M 0 30.132812 L 56.214844 -26.082031 L 112.429688 30.132812 L 56.214844 86.347656 Z M 0 30.132812 " clip-rule="nonzero"/></clipPath><clipPath id="id42"><path d="M 0 30.132812 L 56.214844 -26.082031 L 112.429688 30.132812 L 56.214844 86.347656 Z M 0 30.132812 " clip-rule="nonzero"/></clipPath><clipPath id="id43"><path d="M 54 5 L 59 5 L 59 10 L 54 10 Z M 54 5 " clip-rule="nonzero"/></clipPath><clipPath id="id44"><path d="M 0 30.132812 L 56.214844 -26.082031 L 112.429688 30.132812 L 56.214844 86.347656 Z M 0 30.132812 " clip-rule="nonzero"/></clipPath><clipPath id="id45"><path d="M 0 30.132812 L 56.214844 -26.082031 L 112.429688 30.132812 L 56.214844 86.347656 Z M 0 30.132812 " clip-rule="nonzero"/></clipPath><clipPath id="id46"><path d="M 23 51 L 28 51 L 28 55 L 23 55 Z M 23 51 " clip-rule="nonzero"/></clipPath><clipPath id="id47"><path d="M 0 30.132812 L 56.214844 -26.082031 L 112.429688 30.132812 L 56.214844 86.347656 Z M 0 30.132812 " clip-rule="nonzero"/></clipPath><clipPath id="id48"><path d="M 0 30.132812 L 56.214844 -26.082031 L 112.429688 30.132812 L 56.214844 86.347656 Z M 0 30.132812 " clip-rule="nonzero"/></clipPath><clipPath id="id49"><path d="M 31 43 L 36 43 L 36 48 L 31 48 Z M 31 43 " clip-rule="nonzero"/></clipPath><clipPath id="id50"><path d="M 0 30.132812 L 56.214844 -26.082031 L 112.429688 30.132812 L 56.214844 86.347656 Z M 0 30.132812 " clip-rule="nonzero"/></clipPath><clipPath id="id51"><path d="M 0 30.132812 L 56.214844 -26.082031 L 112.429688 30.132812 L 56.214844 86.347656 Z M 0 30.132812 " clip-rule="nonzero"/></clipPath><clipPath id="id52"><path d="M 39 35 L 43 35 L 43 40 L 39 40 Z M 39 35 " clip-rule="nonzero"/></clipPath><clipPath id="id53"><path d="M 0 30.132812 L 56.214844 -26.082031 L 112.429688 30.132812 L 56.214844 86.347656 Z M 0 30.132812 " clip-rule="nonzero"/></clipPath><clipPath id="id54"><path d="M 0 30.132812 L 56.214844 -26.082031 L 112.429688 30.132812 L 56.214844 86.347656 Z M 0 30.132812 " clip-rule="nonzero"/></clipPath><clipPath id="id55"><path d="M 46 28 L 51 28 L 51 33 L 46 33 Z M 46 28 " clip-rule="nonzero"/></clipPath><clipPath id="id56"><path d="M 0 30.132812 L 56.214844 -26.082031 L 112.429688 30.132812 L 56.214844 86.347656 Z M 0 30.132812 " clip-rule="nonzero"/></clipPath><clipPath id="id57"><path d="M 0 30.132812 L 56.214844 -26.082031 L 112.429688 30.132812 L 56.214844 86.347656 Z M 0 30.132812 " clip-rule="nonzero"/></clipPath><clipPath id="id58"><path d="M 54 20 L 59 20 L 59 25 L 54 25 Z M 54 20 " clip-rule="nonzero"/></clipPath><clipPath id="id59"><path d="M 0 30.132812 L 56.214844 -26.082031 L 112.429688 30.132812 L 56.214844 86.347656 Z M 0 30.132812 " clip-rule="nonzero"/></clipPath><clipPath id="id60"><path d="M 0 30.132812 L 56.214844 -26.082031 L 112.429688 30.132812 L 56.214844 86.347656 Z M 0 30.132812 " clip-rule="nonzero"/></clipPath><clipPath id="id61"><path d="M 62 12 L 66 12 L 66 17 L 62 17 Z M 62 12 " clip-rule="nonzero"/></clipPath><clipPath id="id62"><path d="M 0 30.132812 L 56.214844 -26.082031 L 112.429688 30.132812 L 56.214844 86.347656 Z M 0 30.132812 " clip-rule="nonzero"/></clipPath><clipPath id="id63"><path d="M 0 30.132812 L 56.214844 -26.082031 L 112.429688 30.132812 L 56.214844 86.347656 Z M 0 30.132812 " clip-rule="nonzero"/></clipPath><clipPath id="id64"><path d="M 69 5 L 74 5 L 74 10 L 69 10 Z M 69 5 " clip-rule="nonzero"/></clipPath><clipPath id="id65"><path d="M 0 30.132812 L 56.214844 -26.082031 L 112.429688 30.132812 L 56.214844 86.347656 Z M 0 30.132812 " clip-rule="nonzero"/></clipPath><clipPath id="id66"><path d="M 0 30.132812 L 56.214844 -26.082031 L 112.429688 30.132812 L 56.214844 86.347656 Z M 0 30.132812 " clip-rule="nonzero"/></clipPath><clipPath id="id67"><path d="M 39 51 L 43 51 L 43 55 L 39 55 Z M 39 51 " clip-rule="nonzero"/></clipPath><clipPath id="id68"><path d="M 0 30.132812 L 56.214844 -26.082031 L 112.429688 30.132812 L 56.214844 86.347656 Z M 0 30.132812 " clip-rule="nonzero"/></clipPath><clipPath id="id69"><path d="M 0 30.132812 L 56.214844 -26.082031 L 112.429688 30.132812 L 56.214844 86.347656 Z M 0 30.132812 " clip-rule="nonzero"/></clipPath><clipPath id="id70"><path d="M 46 43 L 51 43 L 51 48 L 46 48 Z M 46 43 " clip-rule="nonzero"/></clipPath><clipPath id="id71"><path d="M 0 30.132812 L 56.214844 -26.082031 L 112.429688 30.132812 L 56.214844 86.347656 Z M 0 30.132812 " clip-rule="nonzero"/></clipPath><clipPath id="id72"><path d="M 0 30.132812 L 56.214844 -26.082031 L 112.429688 30.132812 L 56.214844 86.347656 Z M 0 30.132812 " clip-rule="nonzero"/></clipPath><clipPath id="id73"><path d="M 54 35 L 59 35 L 59 40 L 54 40 Z M 54 35 " clip-rule="nonzero"/></clipPath><clipPath id="id74"><path d="M 0 30.132812 L 56.214844 -26.082031 L 112.429688 30.132812 L 56.214844 86.347656 Z M 0 30.132812 " clip-rule="nonzero"/></clipPath><clipPath id="id75"><path d="M 0 30.132812 L 56.214844 -26.082031 L 112.429688 30.132812 L 56.214844 86.347656 Z M 0 30.132812 " clip-rule="nonzero"/></clipPath><clipPath id="id76"><path d="M 62 28 L 66 28 L 66 33 L 62 33 Z M 62 28 " clip-rule="nonzero"/></clipPath><clipPath id="id77"><path d="M 0 30.132812 L 56.214844 -26.082031 L 112.429688 30.132812 L 56.214844 86.347656 Z M 0 30.132812 " clip-rule="nonzero"/></clipPath><clipPath id="id78"><path d="M 0 30.132812 L 56.214844 -26.082031 L 112.429688 30.132812 L 56.214844 86.347656 Z M 0 30.132812 " clip-rule="nonzero"/></clipPath><clipPath id="id79"><path d="M 69 20 L 74 20 L 74 25 L 69 25 Z M 69 20 " clip-rule="nonzero"/></clipPath><clipPath id="id80"><path d="M 0 30.132812 L 56.214844 -26.082031 L 112.429688 30.132812 L 56.214844 86.347656 Z M 0 30.132812 " clip-rule="nonzero"/></clipPath><clipPath id="id81"><path d="M 0 30.132812 L 56.214844 -26.082031 L 112.429688 30.132812 L 56.214844 86.347656 Z M 0 30.132812 " clip-rule="nonzero"/></clipPath><clipPath id="id82"><path d="M 77 12 L 82 12 L 82 17 L 77 17 Z M 77 12 " clip-rule="nonzero"/></clipPath><clipPath id="id83"><path d="M 0 30.132812 L 56.214844 -26.082031 L 112.429688 30.132812 L 56.214844 86.347656 Z M 0 30.132812 " clip-rule="nonzero"/></clipPath><clipPath id="id84"><path d="M 0 30.132812 L 56.214844 -26.082031 L 112.429688 30.132812 L 56.214844 86.347656 Z M 0 30.132812 " clip-rule="nonzero"/></clipPath><clipPath id="id85"><path d="M 84 5 L 89 5 L 89 10 L 84 10 Z M 84 5 " clip-rule="nonzero"/></clipPath><clipPath id="id86"><path d="M 0 30.132812 L 56.214844 -26.082031 L 112.429688 30.132812 L 56.214844 86.347656 Z M 0 30.132812 " clip-rule="nonzero"/></clipPath><clipPath id="id87"><path d="M 0 30.132812 L 56.214844 -26.082031 L 112.429688 30.132812 L 56.214844 86.347656 Z M 0 30.132812 " clip-rule="nonzero"/></clipPath><clipPath id="id88"><path d="M 54 51 L 59 51 L 59 55 L 54 55 Z M 54 51 " clip-rule="nonzero"/></clipPath><clipPath id="id89"><path d="M 0 30.132812 L 56.214844 -26.082031 L 112.429688 30.132812 L 56.214844 86.347656 Z M 0 30.132812 " clip-rule="nonzero"/></clipPath><clipPath id="id90"><path d="M 0 30.132812 L 56.214844 -26.082031 L 112.429688 30.132812 L 56.214844 86.347656 Z M 0 30.132812 " clip-rule="nonzero"/></clipPath><clipPath id="id91"><path d="M 62 43 L 66 43 L 66 48 L 62 48 Z M 62 43 " clip-rule="nonzero"/></clipPath><clipPath id="id92"><path d="M 0 30.132812 L 56.214844 -26.082031 L 112.429688 30.132812 L 56.214844 86.347656 Z M 0 30.132812 " clip-rule="nonzero"/></clipPath><clipPath id="id93"><path d="M 0 30.132812 L 56.214844 -26.082031 L 112.429688 30.132812 L 56.214844 86.347656 Z M 0 30.132812 " clip-rule="nonzero"/></clipPath><clipPath id="id94"><path d="M 69 35 L 74 35 L 74 40 L 69 40 Z M 69 35 " clip-rule="nonzero"/></clipPath><clipPath id="id95"><path d="M 0 30.132812 L 56.214844 -26.082031 L 112.429688 30.132812 L 56.214844 86.347656 Z M 0 30.132812 " clip-rule="nonzero"/></clipPath><clipPath id="id96"><path d="M 0 30.132812 L 56.214844 -26.082031 L 112.429688 30.132812 L 56.214844 86.347656 Z M 0 30.132812 " clip-rule="nonzero"/></clipPath><clipPath id="id97"><path d="M 77 28 L 82 28 L 82 33 L 77 33 Z M 77 28 " clip-rule="nonzero"/></clipPath><clipPath id="id98"><path d="M 0 30.132812 L 56.214844 -26.082031 L 112.429688 30.132812 L 56.214844 86.347656 Z M 0 30.132812 " clip-rule="nonzero"/></clipPath><clipPath id="id99"><path d="M 0 30.132812 L 56.214844 -26.082031 L 112.429688 30.132812 L 56.214844 86.347656 Z M 0 30.132812 " clip-rule="nonzero"/></clipPath><clipPath id="id100"><path d="M 84 20 L 89 20 L 89 25 L 84 25 Z M 84 20 " clip-rule="nonzero"/></clipPath><clipPath id="id101"><path d="M 0 30.132812 L 56.214844 -26.082031 L 112.429688 30.132812 L 56.214844 86.347656 Z M 0 30.132812 " clip-rule="nonzero"/></clipPath><clipPath id="id102"><path d="M 0 30.132812 L 56.214844 -26.082031 L 112.429688 30.132812 L 56.214844 86.347656 Z M 0 30.132812 " clip-rule="nonzero"/></clipPath><clipPath id="id103"><path d="M 92 12 L 97 12 L 97 17 L 92 17 Z M 92 12 " clip-rule="nonzero"/></clipPath><clipPath id="id104"><path d="M 0 30.132812 L 56.214844 -26.082031 L 112.429688 30.132812 L 56.214844 86.347656 Z M 0 30.132812 " clip-rule="nonzero"/></clipPath><clipPath id="id105"><path d="M 0 30.132812 L 56.214844 -26.082031 L 112.429688 30.132812 L 56.214844 86.347656 Z M 0 30.132812 " clip-rule="nonzero"/></clipPath><clipPath id="id106"><path d="M 69 51 L 74 51 L 74 55 L 69 55 Z M 69 51 " clip-rule="nonzero"/></clipPath><clipPath id="id107"><path d="M 0 30.132812 L 56.214844 -26.082031 L 112.429688 30.132812 L 56.214844 86.347656 Z M 0 30.132812 " clip-rule="nonzero"/></clipPath><clipPath id="id108"><path d="M 0 30.132812 L 56.214844 -26.082031 L 112.429688 30.132812 L 56.214844 86.347656 Z M 0 30.132812 " clip-rule="nonzero"/></clipPath><clipPath id="id109"><path d="M 77 43 L 82 43 L 82 48 L 77 48 Z M 77 43 " clip-rule="nonzero"/></clipPath><clipPath id="id110"><path d="M 0 30.132812 L 56.214844 -26.082031 L 112.429688 30.132812 L 56.214844 86.347656 Z M 0 30.132812 " clip-rule="nonzero"/></clipPath><clipPath id="id111"><path d="M 0 30.132812 L 56.214844 -26.082031 L 112.429688 30.132812 L 56.214844 86.347656 Z M 0 30.132812 " clip-rule="nonzero"/></clipPath><clipPath id="id112"><path d="M 84 35 L 89 35 L 89 40 L 84 40 Z M 84 35 " clip-rule="nonzero"/></clipPath><clipPath id="id113"><path d="M 0 30.132812 L 56.214844 -26.082031 L 112.429688 30.132812 L 56.214844 86.347656 Z M 0 30.132812 " clip-rule="nonzero"/></clipPath><clipPath id="id114"><path d="M 0 30.132812 L 56.214844 -26.082031 L 112.429688 30.132812 L 56.214844 86.347656 Z M 0 30.132812 " clip-rule="nonzero"/></clipPath><clipPath id="id115"><path d="M 92 28 L 97 28 L 97 33 L 92 33 Z M 92 28 " clip-rule="nonzero"/></clipPath><clipPath id="id116"><path d="M 0 30.132812 L 56.214844 -26.082031 L 112.429688 30.132812 L 56.214844 86.347656 Z M 0 30.132812 " clip-rule="nonzero"/></clipPath><clipPath id="id117"><path d="M 0 30.132812 L 56.214844 -26.082031 L 112.429688 30.132812 L 56.214844 86.347656 Z M 0 30.132812 " clip-rule="nonzero"/></clipPath><clipPath id="id118"><path d="M 100 20 L 105 20 L 105 25 L 100 25 Z M 100 20 " clip-rule="nonzero"/></clipPath><clipPath id="id119"><path d="M 0 30.132812 L 56.214844 -26.082031 L 112.429688 30.132812 L 56.214844 86.347656 Z M 0 30.132812 " clip-rule="nonzero"/></clipPath><clipPath id="id120"><path d="M 0 30.132812 L 56.214844 -26.082031 L 112.429688 30.132812 L 56.214844 86.347656 Z M 0 30.132812 " clip-rule="nonzero"/></clipPath><clipPath id="id121"><path d="M 84 51 L 89 51 L 89 55 L 84 55 Z M 84 51 " clip-rule="nonzero"/></clipPath><clipPath id="id122"><path d="M 0 30.132812 L 56.214844 -26.082031 L 112.429688 30.132812 L 56.214844 86.347656 Z M 0 30.132812 " clip-rule="nonzero"/></clipPath><clipPath id="id123"><path d="M 0 30.132812 L 56.214844 -26.082031 L 112.429688 30.132812 L 56.214844 86.347656 Z M 0 30.132812 " clip-rule="nonzero"/></clipPath><clipPath id="id124"><path d="M 92 43 L 97 43 L 97 48 L 92 48 Z M 92 43 " clip-rule="nonzero"/></clipPath><clipPath id="id125"><path d="M 0 30.132812 L 56.214844 -26.082031 L 112.429688 30.132812 L 56.214844 86.347656 Z M 0 30.132812 " clip-rule="nonzero"/></clipPath><clipPath id="id126"><path d="M 0 30.132812 L 56.214844 -26.082031 L 112.429688 30.132812 L 56.214844 86.347656 Z M 0 30.132812 " clip-rule="nonzero"/></clipPath><clipPath id="id127"><path d="M 100 35 L 105 35 L 105 40 L 100 40 Z M 100 35 " clip-rule="nonzero"/></clipPath><clipPath id="id128"><path d="M 0 30.132812 L 56.214844 -26.082031 L 112.429688 30.132812 L 56.214844 86.347656 Z M 0 30.132812 " clip-rule="nonzero"/></clipPath><clipPath id="id129"><path d="M 0 30.132812 L 56.214844 -26.082031 L 112.429688 30.132812 L 56.214844 86.347656 Z M 0 30.132812 " clip-rule="nonzero"/></clipPath><clipPath id="id130"><path d="M 107 28 L 112 28 L 112 33 L 107 33 Z M 107 28 " clip-rule="nonzero"/></clipPath><clipPath id="id131"><path d="M 0 30.132812 L 56.214844 -26.082031 L 112.429688 30.132812 L 56.214844 86.347656 Z M 0 30.132812 " clip-rule="nonzero"/></clipPath><clipPath id="id132"><path d="M 0 30.132812 L 56.214844 -26.082031 L 112.429688 30.132812 L 56.214844 86.347656 Z M 0 30.132812 " clip-rule="nonzero"/></clipPath></defs><g clip-path="url(#id1)"><g clip-path="url(#id2)"><g clip-path="url(#id3)"><path fill="#164e63" d="M 3.976562 28.8125 C 4.152344 28.988281 4.289062 29.191406 4.382812 29.417969 C 4.476562 29.648438 4.523438 29.886719 4.523438 30.132812 C 4.523438 30.382812 4.476562 30.621094 4.382812 30.851562 C 4.289062 31.078125 4.152344 31.28125 3.976562 31.457031 C 3.800781 31.632812 3.597656 31.765625 3.371094 31.863281 C 3.140625 31.957031 2.902344 32.003906 2.65625 32.003906 C 2.40625 32.003906 2.167969 31.957031 1.9375 31.863281 C 1.710938 31.765625 1.507812 31.632812 1.332031 31.457031 C 1.15625 31.28125 1.023438 31.078125 0.925781 30.851562 C 0.832031 30.621094 0.785156 30.382812 0.785156 30.132812 C 0.785156 29.886719 0.832031 29.648438 0.925781 29.417969 C 1.023438 29.191406 1.15625 28.988281 1.332031 28.8125 C 1.507812 28.636719 1.710938 28.5 1.9375 28.40625 C 2.167969 28.3125 2.40625 28.265625 2.65625 28.265625 C 2.902344 28.265625 3.140625 28.3125 3.371094 28.40625 C 3.597656 28.5 3.800781 28.636719 3.976562 28.8125 Z M 3.976562 28.8125 " fill-opacity="1" fill-rule="nonzero"/></g></g></g><g clip-path="url(#id4)"><g clip-path="url(#id5)"><g clip-path="url(#id6)"><path fill="#164e63" d="M 11.628906 21.160156 C 11.804688 21.335938 11.941406 21.539062 12.035156 21.765625 C 12.128906 21.996094 12.175781 22.234375 12.175781 22.480469 C 12.175781 22.730469 12.128906 22.96875 12.035156 23.199219 C 11.941406 23.425781 11.804688 23.628906 11.628906 23.804688 C 11.453125 23.980469 11.25 24.113281 11.023438 24.210938 C 10.792969 24.304688 10.554688 24.351562 10.308594 24.351562 C 10.058594 24.351562 9.820312 24.304688 9.589844 24.210938 C 9.363281 24.113281 9.160156 23.980469 8.984375 23.804688 C 8.808594 23.628906 8.675781 23.425781 8.578125 23.199219 C 8.484375 22.96875 8.4375 22.730469 8.4375 22.480469 C 8.4375 22.234375 8.484375 21.996094 8.578125 21.765625 C 8.675781 21.539062 8.808594 21.335938 8.984375 21.160156 C 9.160156 20.984375 9.363281 20.847656 9.589844 20.753906 C 9.820312 20.660156 10.058594 20.613281 10.308594 20.613281 C 10.554688 20.613281 10.792969 20.660156 11.023438 20.753906 C 11.25 20.847656 11.453125 20.984375 11.628906 21.160156 Z M 11.628906 21.160156 " fill-opacity="1" fill-rule="nonzero"/></g></g></g><g clip-path="url(#id7)"><g clip-path="url(#id8)"><g clip-path="url(#id9)"><path fill="#164e63" d="M 19.28125 13.507812 C 19.457031 13.683594 19.59375 13.886719 19.6875 14.113281 C 19.78125 14.34375 19.828125 14.582031 19.828125 14.828125 C 19.828125 15.078125 19.78125 15.316406 19.6875 15.546875 C 19.59375 15.773438 19.457031 15.976562 19.28125 16.152344 C 19.105469 16.328125 18.902344 16.460938 18.675781 16.558594 C 18.445312 16.652344 18.207031 16.699219 17.960938 16.699219 C 17.710938 16.699219 17.472656 16.652344 17.242188 16.558594 C 17.015625 16.460938 16.8125 16.328125 16.636719 16.152344 C 16.460938 15.976562 16.328125 15.773438 16.230469 15.546875 C 16.136719 15.316406 16.089844 15.078125 16.089844 14.828125 C 16.089844 14.582031 16.136719 14.34375 16.230469 14.113281 C 16.328125 13.886719 16.460938 13.683594 16.636719 13.507812 C 16.8125 13.332031 17.015625 13.195312 17.242188 13.101562 C 17.472656 13.007812 17.710938 12.960938 17.960938 12.960938 C 18.207031 12.960938 18.445312 13.007812 18.675781 13.101562 C 18.902344 13.195312 19.105469 13.332031 19.28125 13.507812 Z M 19.28125 13.507812 " fill-opacity="1" fill-rule="nonzero"/></g></g></g><g clip-path="url(#id10)"><g clip-path="url(#id11)"><g clip-path="url(#id12)"><path fill="#164e63" d="M 26.933594 5.855469 C 27.109375 6.03125 27.246094 6.230469 27.339844 6.460938 C 27.433594 6.691406 27.480469 6.929688 27.480469 7.175781 C 27.480469 7.425781 27.433594 7.664062 27.339844 7.894531 C 27.246094 8.121094 27.109375 8.324219 26.933594 8.5 C 26.757812 8.675781 26.554688 8.808594 26.328125 8.90625 C 26.097656 9 25.859375 9.046875 25.613281 9.046875 C 25.363281 9.046875 25.125 9 24.894531 8.90625 C 24.667969 8.808594 24.464844 8.675781 24.289062 8.5 C 24.113281 8.324219 23.980469 8.121094 23.882812 7.894531 C 23.789062 7.664062 23.742188 7.425781 23.742188 7.175781 C 23.742188 6.929688 23.789062 6.691406 23.882812 6.460938 C 23.980469 6.230469 24.113281 6.03125 24.289062 5.855469 C 24.464844 5.679688 24.667969 5.542969 24.894531 5.449219 C 25.125 5.355469 25.363281 5.308594 25.613281 5.308594 C 25.859375 5.308594 26.097656 5.355469 26.328125 5.449219 C 26.554688 5.542969 26.757812 5.679688 26.933594 5.855469 Z M 26.933594 5.855469 " fill-opacity="1" fill-rule="nonzero"/></g></g></g><g clip-path="url(#id13)"><g clip-path="url(#id14)"><g clip-path="url(#id15)"><path fill="#164e63" d="M 11.628906 36.464844 C 11.804688 36.640625 11.941406 36.84375 12.035156 37.070312 C 12.128906 37.300781 12.175781 37.539062 12.175781 37.785156 C 12.175781 38.035156 12.128906 38.273438 12.035156 38.503906 C 11.941406 38.730469 11.804688 38.933594 11.628906 39.109375 C 11.453125 39.285156 11.25 39.417969 11.023438 39.515625 C 10.792969 39.609375 10.554688 39.65625 10.308594 39.65625 C 10.058594 39.65625 9.820312 39.609375 9.589844 39.515625 C 9.363281 39.417969 9.160156 39.285156 8.984375 39.109375 C 8.808594 38.933594 8.675781 38.730469 8.578125 38.503906 C 8.484375 38.273438 8.4375 38.035156 8.4375 37.785156 C 8.4375 37.539062 8.484375 37.300781 8.578125 37.070312 C 8.675781 36.84375 8.808594 36.640625 8.984375 36.464844 C 9.160156 36.289062 9.363281 36.152344 9.589844 36.058594 C 9.820312 35.964844 10.058594 35.917969 10.308594 35.917969 C 10.554688 35.917969 10.792969 35.964844 11.023438 36.058594 C 11.25 36.152344 11.453125 36.289062 11.628906 36.464844 Z M 11.628906 36.464844 " fill-opacity="1" fill-rule="nonzero"/></g></g></g><g clip-path="url(#id16)"><g clip-path="url(#id17)"><g clip-path="url(#id18)"><path fill="#164e63" d="M 19.28125 28.8125 C 19.457031 28.988281 19.59375 29.191406 19.6875 29.417969 C 19.78125 29.648438 19.828125 29.886719 19.828125 30.132812 C 19.828125 30.382812 19.78125 30.621094 19.6875 30.851562 C 19.59375 31.078125 19.457031 31.28125 19.28125 31.457031 C 19.105469 31.632812 18.902344 31.765625 18.675781 31.863281 C 18.445312 31.957031 18.207031 32.003906 17.960938 32.003906 C 17.710938 32.003906 17.472656 31.957031 17.242188 31.863281 C 17.015625 31.765625 16.8125 31.632812 16.636719 31.457031 C 16.460938 31.28125 16.328125 31.078125 16.230469 30.851562 C 16.136719 30.621094 16.089844 30.382812 16.089844 30.132812 C 16.089844 29.886719 16.136719 29.648438 16.230469 29.417969 C 16.328125 29.191406 16.460938 28.988281 16.636719 28.8125 C 16.8125 28.636719 17.015625 28.5 17.242188 28.40625 C 17.472656 28.3125 17.710938 28.265625 17.960938 28.265625 C 18.207031 28.265625 18.445312 28.3125 18.675781 28.40625 C 18.902344 28.5 19.105469 28.636719 19.28125 28.8125 Z M 19.28125 28.8125 " fill-opacity="1" fill-rule="nonzero"/></g></g></g><g clip-path="url(#id19)"><g clip-path="url(#id20)"><g clip-path="url(#id21)"><path fill="#164e63" d="M 26.933594 21.160156 C 27.109375 21.335938 27.246094 21.539062 27.339844 21.765625 C 27.433594 21.996094 27.480469 22.234375 27.480469 22.480469 C 27.480469 22.730469 27.433594 22.96875 27.339844 23.199219 C 27.246094 23.425781 27.109375 23.628906 26.933594 23.804688 C 26.757812 23.980469 26.554688 24.113281 26.328125 24.210938 C 26.097656 24.304688 25.859375 24.351562 25.613281 24.351562 C 25.363281 24.351562 25.125 24.304688 24.894531 24.210938 C 24.667969 24.113281 24.464844 23.980469 24.289062 23.804688 C 24.113281 23.628906 23.980469 23.425781 23.882812 23.199219 C 23.789062 22.96875 23.742188 22.730469 23.742188 22.480469 C 23.742188 22.234375 23.789062 21.996094 23.882812 21.765625 C 23.980469 21.539062 24.113281 21.335938 24.289062 21.160156 C 24.464844 20.984375 24.667969 20.847656 24.894531 20.753906 C 25.125 20.660156 25.363281 20.613281 25.613281 20.613281 C 25.859375 20.613281 26.097656 20.660156 26.328125 20.753906 C 26.554688 20.847656 26.757812 20.984375 26.933594 21.160156 Z M 26.933594 21.160156 " fill-opacity="1" fill-rule="nonzero"/></g></g></g><g clip-path="url(#id22)"><g clip-path="url(#id23)"><g clip-path="url(#id24)"><path fill="#164e63" d="M 34.585938 13.507812 C 34.761719 13.683594 34.898438 13.886719 34.992188 14.113281 C 35.085938 14.34375 35.132812 14.582031 35.132812 14.828125 C 35.132812 15.078125 35.085938 15.316406 34.992188 15.546875 C 34.898438 15.773438 34.761719 15.976562 34.585938 16.152344 C 34.410156 16.328125 34.210938 16.460938 33.980469 16.558594 C 33.75 16.652344 33.511719 16.699219 33.265625 16.699219 C 33.015625 16.699219 32.777344 16.652344 32.546875 16.558594 C 32.320312 16.460938 32.117188 16.328125 31.941406 16.152344 C 31.765625 15.976562 31.632812 15.773438 31.535156 15.546875 C 31.441406 15.316406 31.394531 15.078125 31.394531 14.828125 C 31.394531 14.582031 31.441406 14.34375 31.535156 14.113281 C 31.632812 13.886719 31.765625 13.683594 31.941406 13.507812 C 32.117188 13.332031 32.320312 13.195312 32.546875 13.101562 C 32.777344 13.007812 33.015625 12.960938 33.265625 12.960938 C 33.511719 12.960938 33.75 13.007812 33.980469 13.101562 C 34.210938 13.195312 34.410156 13.332031 34.585938 13.507812 Z M 34.585938 13.507812 " fill-opacity="1" fill-rule="nonzero"/></g></g></g><g clip-path="url(#id25)"><g clip-path="url(#id26)"><g clip-path="url(#id27)"><path fill="#164e63" d="M 42.238281 5.855469 C 42.414062 6.03125 42.550781 6.230469 42.644531 6.460938 C 42.738281 6.691406 42.785156 6.929688 42.785156 7.175781 C 42.785156 7.425781 42.738281 7.664062 42.644531 7.894531 C 42.550781 8.121094 42.414062 8.324219 42.238281 8.5 C 42.0625 8.675781 41.863281 8.808594 41.632812 8.90625 C 41.402344 9 41.164062 9.046875 40.917969 9.046875 C 40.667969 9.046875 40.429688 9 40.199219 8.90625 C 39.972656 8.808594 39.769531 8.675781 39.59375 8.5 C 39.417969 8.324219 39.285156 8.121094 39.1875 7.894531 C 39.09375 7.664062 39.046875 7.425781 39.046875 7.175781 C 39.046875 6.929688 39.09375 6.691406 39.1875 6.460938 C 39.285156 6.230469 39.417969 6.03125 39.59375 5.855469 C 39.769531 5.679688 39.972656 5.542969 40.199219 5.449219 C 40.429688 5.355469 40.667969 5.308594 40.917969 5.308594 C 41.164062 5.308594 41.402344 5.355469 41.632812 5.449219 C 41.863281 5.542969 42.0625 5.679688 42.238281 5.855469 Z M 42.238281 5.855469 " fill-opacity="1" fill-rule="nonzero"/></g></g></g><g clip-path="url(#id28)"><g clip-path="url(#id29)"><g clip-path="url(#id30)"><path fill="#164e63" d="M 19.28125 44.117188 C 19.457031 44.292969 19.59375 44.496094 19.6875 44.722656 C 19.78125 44.953125 19.828125 45.191406 19.828125 45.4375 C 19.828125 45.6875 19.78125 45.925781 19.6875 46.15625 C 19.59375 46.382812 19.457031 46.585938 19.28125 46.761719 C 19.105469 46.9375 18.902344 47.070312 18.675781 47.167969 C 18.445312 47.261719 18.207031 47.308594 17.960938 47.308594 C 17.710938 47.308594 17.472656 47.261719 17.242188 47.167969 C 17.015625 47.070312 16.8125 46.9375 16.636719 46.761719 C 16.460938 46.585938 16.328125 46.382812 16.230469 46.15625 C 16.136719 45.925781 16.089844 45.6875 16.089844 45.4375 C 16.089844 45.191406 16.136719 44.953125 16.230469 44.722656 C 16.328125 44.496094 16.460938 44.292969 16.636719 44.117188 C 16.8125 43.941406 17.015625 43.804688 17.242188 43.710938 C 17.472656 43.617188 17.710938 43.570312 17.960938 43.570312 C 18.207031 43.570312 18.445312 43.617188 18.675781 43.710938 C 18.902344 43.804688 19.105469 43.941406 19.28125 44.117188 Z M 19.28125 44.117188 " fill-opacity="1" fill-rule="nonzero"/></g></g></g><g clip-path="url(#id31)"><g clip-path="url(#id32)"><g clip-path="url(#id33)"><path fill="#164e63" d="M 26.933594 36.464844 C 27.109375 36.640625 27.246094 36.84375 27.339844 37.070312 C 27.433594 37.300781 27.480469 37.539062 27.480469 37.785156 C 27.480469 38.035156 27.433594 38.273438 27.339844 38.503906 C 27.246094 38.730469 27.109375 38.933594 26.933594 39.109375 C 26.757812 39.285156 26.554688 39.417969 26.328125 39.515625 C 26.097656 39.609375 25.859375 39.65625 25.613281 39.65625 C 25.363281 39.65625 25.125 39.609375 24.894531 39.515625 C 24.667969 39.417969 24.464844 39.285156 24.289062 39.109375 C 24.113281 38.933594 23.980469 38.730469 23.882812 38.503906 C 23.789062 38.273438 23.742188 38.035156 23.742188 37.785156 C 23.742188 37.539062 23.789062 37.300781 23.882812 37.070312 C 23.980469 36.84375 24.113281 36.640625 24.289062 36.464844 C 24.464844 36.289062 24.667969 36.152344 24.894531 36.058594 C 25.125 35.964844 25.363281 35.917969 25.613281 35.917969 C 25.859375 35.917969 26.097656 35.964844 26.328125 36.058594 C 26.554688 36.152344 26.757812 36.289062 26.933594 36.464844 Z M 26.933594 36.464844 " fill-opacity="1" fill-rule="nonzero"/></g></g></g><g clip-path="url(#id34)"><g clip-path="url(#id35)"><g clip-path="url(#id36)"><path fill="#164e63" d="M 34.585938 28.8125 C 34.761719 28.988281 34.898438 29.191406 34.992188 29.417969 C 35.085938 29.648438 35.132812 29.886719 35.132812 30.132812 C 35.132812 30.382812 35.085938 30.621094 34.992188 30.851562 C 34.898438 31.078125 34.761719 31.28125 34.585938 31.457031 C 34.410156 31.632812 34.210938 31.765625 33.980469 31.863281 C 33.75 31.957031 33.511719 32.003906 33.265625 32.003906 C 33.015625 32.003906 32.777344 31.957031 32.546875 31.863281 C 32.320312 31.765625 32.117188 31.632812 31.941406 31.457031 C 31.765625 31.28125 31.632812 31.078125 31.535156 30.851562 C 31.441406 30.621094 31.394531 30.382812 31.394531 30.132812 C 31.394531 29.886719 31.441406 29.648438 31.535156 29.417969 C 31.632812 29.191406 31.765625 28.988281 31.941406 28.8125 C 32.117188 28.636719 32.320312 28.5 32.546875 28.40625 C 32.777344 28.3125 33.015625 28.265625 33.265625 28.265625 C 33.511719 28.265625 33.75 28.3125 33.980469 28.40625 C 34.210938 28.5 34.410156 28.636719 34.585938 28.8125 Z M 34.585938 28.8125 " fill-opacity="1" fill-rule="nonzero"/></g></g></g><g clip-path="url(#id37)"><g clip-path="url(#id38)"><g clip-path="url(#id39)"><path fill="#164e63" d="M 42.238281 21.160156 C 42.414062 21.335938 42.550781 21.539062 42.644531 21.765625 C 42.738281 21.996094 42.785156 22.234375 42.785156 22.480469 C 42.785156 22.730469 42.738281 22.96875 42.644531 23.199219 C 42.550781 23.425781 42.414062 23.628906 42.238281 23.804688 C 42.0625 23.980469 41.863281 24.113281 41.632812 24.210938 C 41.402344 24.304688 41.164062 24.351562 40.917969 24.351562 C 40.667969 24.351562 40.429688 24.304688 40.199219 24.210938 C 39.972656 24.113281 39.769531 23.980469 39.59375 23.804688 C 39.417969 23.628906 39.285156 23.425781 39.1875 23.199219 C 39.09375 22.96875 39.046875 22.730469 39.046875 22.480469 C 39.046875 22.234375 39.09375 21.996094 39.1875 21.765625 C 39.285156 21.539062 39.417969 21.335938 39.59375 21.160156 C 39.769531 20.984375 39.972656 20.847656 40.199219 20.753906 C 40.429688 20.660156 40.667969 20.613281 40.917969 20.613281 C 41.164062 20.613281 41.402344 20.660156 41.632812 20.753906 C 41.863281 20.847656 42.0625 20.984375 42.238281 21.160156 Z M 42.238281 21.160156 " fill-opacity="1" fill-rule="nonzero"/></g></g></g><g clip-path="url(#id40)"><g clip-path="url(#id41)"><g clip-path="url(#id42)"><path fill="#164e63" d="M 49.890625 13.507812 C 50.066406 13.683594 50.203125 13.886719 50.296875 14.113281 C 50.390625 14.34375 50.4375 14.582031 50.4375 14.828125 C 50.4375 15.078125 50.390625 15.316406 50.296875 15.546875 C 50.203125 15.773438 50.066406 15.976562 49.890625 16.152344 C 49.714844 16.328125 49.515625 16.460938 49.285156 16.558594 C 49.054688 16.652344 48.816406 16.699219 48.570312 16.699219 C 48.320312 16.699219 48.082031 16.652344 47.855469 16.558594 C 47.625 16.460938 47.421875 16.328125 47.246094 16.152344 C 47.070312 15.976562 46.9375 15.773438 46.839844 15.546875 C 46.746094 15.316406 46.699219 15.078125 46.699219 14.828125 C 46.699219 14.582031 46.746094 14.34375 46.839844 14.113281 C 46.9375 13.886719 47.070312 13.683594 47.246094 13.507812 C 47.421875 13.332031 47.625 13.195312 47.855469 13.101562 C 48.082031 13.007812 48.320312 12.960938 48.570312 12.960938 C 48.816406 12.960938 49.054688 13.007812 49.285156 13.101562 C 49.515625 13.195312 49.714844 13.332031 49.890625 13.507812 Z M 49.890625 13.507812 " fill-opacity="1" fill-rule="nonzero"/></g></g></g><g clip-path="url(#id43)"><g clip-path="url(#id44)"><g clip-path="url(#id45)"><path fill="#164e63" d="M 57.542969 5.855469 C 57.71875 6.03125 57.855469 6.230469 57.949219 6.460938 C 58.042969 6.691406 58.089844 6.929688 58.089844 7.175781 C 58.089844 7.425781 58.042969 7.664062 57.949219 7.894531 C 57.855469 8.121094 57.71875 8.324219 57.542969 8.5 C 57.367188 8.675781 57.167969 8.808594 56.9375 8.90625 C 56.707031 9 56.46875 9.046875 56.222656 9.046875 C 55.972656 9.046875 55.734375 9 55.507812 8.90625 C 55.277344 8.808594 55.074219 8.675781 54.898438 8.5 C 54.722656 8.324219 54.589844 8.121094 54.492188 7.894531 C 54.398438 7.664062 54.351562 7.425781 54.351562 7.175781 C 54.351562 6.929688 54.398438 6.691406 54.492188 6.460938 C 54.589844 6.230469 54.722656 6.03125 54.898438 5.855469 C 55.074219 5.679688 55.277344 5.542969 55.507812 5.449219 C 55.734375 5.355469 55.972656 5.308594 56.222656 5.308594 C 56.46875 5.308594 56.707031 5.355469 56.9375 5.449219 C 57.167969 5.542969 57.367188 5.679688 57.542969 5.855469 Z M 57.542969 5.855469 " fill-opacity="1" fill-rule="nonzero"/></g></g></g><g clip-path="url(#id46)"><g clip-path="url(#id47)"><g clip-path="url(#id48)"><path fill="#164e63" d="M 26.933594 51.769531 C 27.109375 51.945312 27.246094 52.148438 27.339844 52.375 C 27.433594 52.605469 27.480469 52.84375 27.480469 53.09375 C 27.480469 53.339844 27.433594 53.578125 27.339844 53.808594 C 27.246094 54.035156 27.109375 54.238281 26.933594 54.414062 C 26.757812 54.589844 26.554688 54.726562 26.328125 54.820312 C 26.097656 54.914062 25.859375 54.960938 25.613281 54.960938 C 25.363281 54.960938 25.125 54.914062 24.894531 54.820312 C 24.667969 54.726562 24.464844 54.589844 24.289062 54.414062 C 24.113281 54.238281 23.980469 54.035156 23.882812 53.808594 C 23.789062 53.578125 23.742188 53.339844 23.742188 53.09375 C 23.742188 52.84375 23.789062 52.605469 23.882812 52.375 C 23.980469 52.148438 24.113281 51.945312 24.289062 51.769531 C 24.464844 51.59375 24.667969 51.460938 24.894531 51.363281 C 25.125 51.269531 25.363281 51.222656 25.613281 51.222656 C 25.859375 51.222656 26.097656 51.269531 26.328125 51.363281 C 26.554688 51.460938 26.757812 51.59375 26.933594 51.769531 Z M 26.933594 51.769531 " fill-opacity="1" fill-rule="nonzero"/></g></g></g><g clip-path="url(#id49)"><g clip-path="url(#id50)"><g clip-path="url(#id51)"><path fill="#164e63" d="M 34.585938 44.117188 C 34.761719 44.292969 34.898438 44.496094 34.992188 44.722656 C 35.085938 44.953125 35.132812 45.191406 35.132812 45.4375 C 35.132812 45.6875 35.085938 45.925781 34.992188 46.15625 C 34.898438 46.382812 34.761719 46.585938 34.585938 46.761719 C 34.410156 46.9375 34.210938 47.070312 33.980469 47.167969 C 33.75 47.261719 33.511719 47.308594 33.265625 47.308594 C 33.015625 47.308594 32.777344 47.261719 32.546875 47.167969 C 32.320312 47.070312 32.117188 46.9375 31.941406 46.761719 C 31.765625 46.585938 31.632812 46.382812 31.535156 46.15625 C 31.441406 45.925781 31.394531 45.6875 31.394531 45.4375 C 31.394531 45.191406 31.441406 44.953125 31.535156 44.722656 C 31.632812 44.496094 31.765625 44.292969 31.941406 44.117188 C 32.117188 43.941406 32.320312 43.804688 32.546875 43.710938 C 32.777344 43.617188 33.015625 43.570312 33.265625 43.570312 C 33.511719 43.570312 33.75 43.617188 33.980469 43.710938 C 34.210938 43.804688 34.410156 43.941406 34.585938 44.117188 Z M 34.585938 44.117188 " fill-opacity="1" fill-rule="nonzero"/></g></g></g><g clip-path="url(#id52)"><g clip-path="url(#id53)"><g clip-path="url(#id54)"><path fill="#164e63" d="M 42.238281 36.464844 C 42.414062 36.640625 42.550781 36.84375 42.644531 37.070312 C 42.738281 37.300781 42.785156 37.539062 42.785156 37.785156 C 42.785156 38.035156 42.738281 38.273438 42.644531 38.503906 C 42.550781 38.730469 42.414062 38.933594 42.238281 39.109375 C 42.0625 39.285156 41.863281 39.417969 41.632812 39.515625 C 41.402344 39.609375 41.164062 39.65625 40.917969 39.65625 C 40.667969 39.65625 40.429688 39.609375 40.199219 39.515625 C 39.972656 39.417969 39.769531 39.285156 39.59375 39.109375 C 39.417969 38.933594 39.285156 38.730469 39.1875 38.503906 C 39.09375 38.273438 39.046875 38.035156 39.046875 37.785156 C 39.046875 37.539062 39.09375 37.300781 39.1875 37.070312 C 39.285156 36.84375 39.417969 36.640625 39.59375 36.464844 C 39.769531 36.289062 39.972656 36.152344 40.199219 36.058594 C 40.429688 35.964844 40.667969 35.917969 40.917969 35.917969 C 41.164062 35.917969 41.402344 35.964844 41.632812 36.058594 C 41.863281 36.152344 42.0625 36.289062 42.238281 36.464844 Z M 42.238281 36.464844 " fill-opacity="1" fill-rule="nonzero"/></g></g></g><g clip-path="url(#id55)"><g clip-path="url(#id56)"><g clip-path="url(#id57)"><path fill="#164e63" d="M 49.890625 28.8125 C 50.066406 28.988281 50.203125 29.191406 50.296875 29.417969 C 50.390625 29.648438 50.4375 29.886719 50.4375 30.132812 C 50.4375 30.382812 50.390625 30.621094 50.296875 30.851562 C 50.203125 31.078125 50.066406 31.28125 49.890625 31.457031 C 49.714844 31.632812 49.515625 31.765625 49.285156 31.863281 C 49.054688 31.957031 48.816406 32.003906 48.570312 32.003906 C 48.320312 32.003906 48.082031 31.957031 47.855469 31.863281 C 47.625 31.765625 47.421875 31.632812 47.246094 31.457031 C 47.070312 31.28125 46.9375 31.078125 46.839844 30.851562 C 46.746094 30.621094 46.699219 30.382812 46.699219 30.132812 C 46.699219 29.886719 46.746094 29.648438 46.839844 29.417969 C 46.9375 29.191406 47.070312 28.988281 47.246094 28.8125 C 47.421875 28.636719 47.625 28.5 47.855469 28.40625 C 48.082031 28.3125 48.320312 28.265625 48.570312 28.265625 C 48.816406 28.265625 49.054688 28.3125 49.285156 28.40625 C 49.515625 28.5 49.714844 28.636719 49.890625 28.8125 Z M 49.890625 28.8125 " fill-opacity="1" fill-rule="nonzero"/></g></g></g><g clip-path="url(#id58)"><g clip-path="url(#id59)"><g clip-path="url(#id60)"><path fill="#164e63" d="M 57.542969 21.160156 C 57.71875 21.335938 57.855469 21.539062 57.949219 21.765625 C 58.042969 21.996094 58.089844 22.234375 58.089844 22.480469 C 58.089844 22.730469 58.042969 22.96875 57.949219 23.199219 C 57.855469 23.425781 57.71875 23.628906 57.542969 23.804688 C 57.367188 23.980469 57.167969 24.113281 56.9375 24.210938 C 56.707031 24.304688 56.46875 24.351562 56.222656 24.351562 C 55.972656 24.351562 55.734375 24.304688 55.507812 24.210938 C 55.277344 24.113281 55.074219 23.980469 54.898438 23.804688 C 54.722656 23.628906 54.589844 23.425781 54.492188 23.199219 C 54.398438 22.96875 54.351562 22.730469 54.351562 22.480469 C 54.351562 22.234375 54.398438 21.996094 54.492188 21.765625 C 54.589844 21.539062 54.722656 21.335938 54.898438 21.160156 C 55.074219 20.984375 55.277344 20.847656 55.507812 20.753906 C 55.734375 20.660156 55.972656 20.613281 56.222656 20.613281 C 56.46875 20.613281 56.707031 20.660156 56.9375 20.753906 C 57.167969 20.847656 57.367188 20.984375 57.542969 21.160156 Z M 57.542969 21.160156 " fill-opacity="1" fill-rule="nonzero"/></g></g></g><g clip-path="url(#id61)"><g clip-path="url(#id62)"><g clip-path="url(#id63)"><path fill="#164e63" d="M 65.195312 13.507812 C 65.371094 13.683594 65.507812 13.886719 65.601562 14.113281 C 65.695312 14.34375 65.746094 14.582031 65.746094 14.828125 C 65.746094 15.078125 65.695312 15.316406 65.601562 15.546875 C 65.507812 15.773438 65.371094 15.976562 65.195312 16.152344 C 65.019531 16.328125 64.820312 16.460938 64.589844 16.558594 C 64.359375 16.652344 64.121094 16.699219 63.875 16.699219 C 63.625 16.699219 63.386719 16.652344 63.160156 16.558594 C 62.929688 16.460938 62.726562 16.328125 62.550781 16.152344 C 62.375 15.976562 62.242188 15.773438 62.144531 15.546875 C 62.050781 15.316406 62.003906 15.078125 62.003906 14.828125 C 62.003906 14.582031 62.050781 14.34375 62.144531 14.113281 C 62.242188 13.886719 62.375 13.683594 62.550781 13.507812 C 62.726562 13.332031 62.929688 13.195312 63.160156 13.101562 C 63.386719 13.007812 63.625 12.960938 63.875 12.960938 C 64.121094 12.960938 64.359375 13.007812 64.589844 13.101562 C 64.820312 13.195312 65.019531 13.332031 65.195312 13.507812 Z M 65.195312 13.507812 " fill-opacity="1" fill-rule="nonzero"/></g></g></g><g clip-path="url(#id64)"><g clip-path="url(#id65)"><g clip-path="url(#id66)"><path fill="#164e63" d="M 72.847656 5.855469 C 73.023438 6.03125 73.160156 6.230469 73.253906 6.460938 C 73.347656 6.691406 73.398438 6.929688 73.398438 7.175781 C 73.398438 7.425781 73.347656 7.664062 73.253906 7.894531 C 73.160156 8.121094 73.023438 8.324219 72.847656 8.5 C 72.671875 8.675781 72.472656 8.808594 72.242188 8.90625 C 72.011719 9 71.773438 9.046875 71.527344 9.046875 C 71.277344 9.046875 71.039062 9 70.8125 8.90625 C 70.582031 8.808594 70.378906 8.675781 70.203125 8.5 C 70.027344 8.324219 69.894531 8.121094 69.800781 7.894531 C 69.703125 7.664062 69.65625 7.425781 69.65625 7.175781 C 69.65625 6.929688 69.703125 6.691406 69.800781 6.460938 C 69.894531 6.230469 70.027344 6.03125 70.203125 5.855469 C 70.378906 5.679688 70.582031 5.542969 70.8125 5.449219 C 71.039062 5.355469 71.277344 5.308594 71.527344 5.308594 C 71.773438 5.308594 72.011719 5.355469 72.242188 5.449219 C 72.472656 5.542969 72.671875 5.679688 72.847656 5.855469 Z M 72.847656 5.855469 " fill-opacity="1" fill-rule="nonzero"/></g></g></g><g clip-path="url(#id67)"><g clip-path="url(#id68)"><g clip-path="url(#id69)"><path fill="#164e63" d="M 42.238281 51.769531 C 42.414062 51.945312 42.550781 52.148438 42.644531 52.375 C 42.738281 52.605469 42.785156 52.84375 42.785156 53.09375 C 42.785156 53.339844 42.738281 53.578125 42.644531 53.808594 C 42.550781 54.035156 42.414062 54.238281 42.238281 54.414062 C 42.0625 54.589844 41.863281 54.726562 41.632812 54.820312 C 41.402344 54.914062 41.164062 54.960938 40.917969 54.960938 C 40.667969 54.960938 40.429688 54.914062 40.199219 54.820312 C 39.972656 54.726562 39.769531 54.589844 39.59375 54.414062 C 39.417969 54.238281 39.285156 54.035156 39.1875 53.808594 C 39.09375 53.578125 39.046875 53.339844 39.046875 53.09375 C 39.046875 52.84375 39.09375 52.605469 39.1875 52.375 C 39.285156 52.148438 39.417969 51.945312 39.59375 51.769531 C 39.769531 51.59375 39.972656 51.460938 40.199219 51.363281 C 40.429688 51.269531 40.667969 51.222656 40.917969 51.222656 C 41.164062 51.222656 41.402344 51.269531 41.632812 51.363281 C 41.863281 51.460938 42.0625 51.59375 42.238281 51.769531 Z M 42.238281 51.769531 " fill-opacity="1" fill-rule="nonzero"/></g></g></g><g clip-path="url(#id70)"><g clip-path="url(#id71)"><g clip-path="url(#id72)"><path fill="#164e63" d="M 49.890625 44.117188 C 50.066406 44.292969 50.203125 44.496094 50.296875 44.722656 C 50.390625 44.953125 50.4375 45.191406 50.4375 45.4375 C 50.4375 45.6875 50.390625 45.925781 50.296875 46.15625 C 50.203125 46.382812 50.066406 46.585938 49.890625 46.761719 C 49.714844 46.9375 49.515625 47.070312 49.285156 47.167969 C 49.054688 47.261719 48.816406 47.308594 48.570312 47.308594 C 48.320312 47.308594 48.082031 47.261719 47.855469 47.167969 C 47.625 47.070312 47.421875 46.9375 47.246094 46.761719 C 47.070312 46.585938 46.9375 46.382812 46.839844 46.15625 C 46.746094 45.925781 46.699219 45.6875 46.699219 45.4375 C 46.699219 45.191406 46.746094 44.953125 46.839844 44.722656 C 46.9375 44.496094 47.070312 44.292969 47.246094 44.117188 C 47.421875 43.941406 47.625 43.804688 47.855469 43.710938 C 48.082031 43.617188 48.320312 43.570312 48.570312 43.570312 C 48.816406 43.570312 49.054688 43.617188 49.285156 43.710938 C 49.515625 43.804688 49.714844 43.941406 49.890625 44.117188 Z M 49.890625 44.117188 " fill-opacity="1" fill-rule="nonzero"/></g></g></g><g clip-path="url(#id73)"><g clip-path="url(#id74)"><g clip-path="url(#id75)"><path fill="#164e63" d="M 57.542969 36.464844 C 57.71875 36.640625 57.855469 36.84375 57.949219 37.070312 C 58.042969 37.300781 58.089844 37.539062 58.089844 37.785156 C 58.089844 38.035156 58.042969 38.273438 57.949219 38.503906 C 57.855469 38.730469 57.71875 38.933594 57.542969 39.109375 C 57.367188 39.285156 57.167969 39.417969 56.9375 39.515625 C 56.707031 39.609375 56.46875 39.65625 56.222656 39.65625 C 55.972656 39.65625 55.734375 39.609375 55.507812 39.515625 C 55.277344 39.417969 55.074219 39.285156 54.898438 39.109375 C 54.722656 38.933594 54.589844 38.730469 54.492188 38.503906 C 54.398438 38.273438 54.351562 38.035156 54.351562 37.785156 C 54.351562 37.539062 54.398438 37.300781 54.492188 37.070312 C 54.589844 36.84375 54.722656 36.640625 54.898438 36.464844 C 55.074219 36.289062 55.277344 36.152344 55.507812 36.058594 C 55.734375 35.964844 55.972656 35.917969 56.222656 35.917969 C 56.46875 35.917969 56.707031 35.964844 56.9375 36.058594 C 57.167969 36.152344 57.367188 36.289062 57.542969 36.464844 Z M 57.542969 36.464844 " fill-opacity="1" fill-rule="nonzero"/></g></g></g><g clip-path="url(#id76)"><g clip-path="url(#id77)"><g clip-path="url(#id78)"><path fill="#164e63" d="M 65.195312 28.8125 C 65.371094 28.988281 65.507812 29.191406 65.601562 29.417969 C 65.695312 29.648438 65.746094 29.886719 65.746094 30.132812 C 65.746094 30.382812 65.695312 30.621094 65.601562 30.851562 C 65.507812 31.078125 65.371094 31.28125 65.195312 31.457031 C 65.019531 31.632812 64.820312 31.765625 64.589844 31.863281 C 64.359375 31.957031 64.121094 32.003906 63.875 32.003906 C 63.625 32.003906 63.386719 31.957031 63.160156 31.863281 C 62.929688 31.765625 62.726562 31.632812 62.550781 31.457031 C 62.375 31.28125 62.242188 31.078125 62.144531 30.851562 C 62.050781 30.621094 62.003906 30.382812 62.003906 30.132812 C 62.003906 29.886719 62.050781 29.648438 62.144531 29.417969 C 62.242188 29.191406 62.375 28.988281 62.550781 28.8125 C 62.726562 28.636719 62.929688 28.5 63.160156 28.40625 C 63.386719 28.3125 63.625 28.265625 63.875 28.265625 C 64.121094 28.265625 64.359375 28.3125 64.589844 28.40625 C 64.820312 28.5 65.019531 28.636719 65.195312 28.8125 Z M 65.195312 28.8125 " fill-opacity="1" fill-rule="nonzero"/></g></g></g><g clip-path="url(#id79)"><g clip-path="url(#id80)"><g clip-path="url(#id81)"><path fill="#164e63" d="M 72.847656 21.160156 C 73.023438 21.335938 73.160156 21.539062 73.253906 21.765625 C 73.347656 21.996094 73.398438 22.234375 73.398438 22.480469 C 73.398438 22.730469 73.347656 22.96875 73.253906 23.199219 C 73.160156 23.425781 73.023438 23.628906 72.847656 23.804688 C 72.671875 23.980469 72.472656 24.113281 72.242188 24.210938 C 72.011719 24.304688 71.773438 24.351562 71.527344 24.351562 C 71.277344 24.351562 71.039062 24.304688 70.8125 24.210938 C 70.582031 24.113281 70.378906 23.980469 70.203125 23.804688 C 70.027344 23.628906 69.894531 23.425781 69.800781 23.199219 C 69.703125 22.96875 69.65625 22.730469 69.65625 22.480469 C 69.65625 22.234375 69.703125 21.996094 69.800781 21.765625 C 69.894531 21.539062 70.027344 21.335938 70.203125 21.160156 C 70.378906 20.984375 70.582031 20.847656 70.8125 20.753906 C 71.039062 20.660156 71.277344 20.613281 71.527344 20.613281 C 71.773438 20.613281 72.011719 20.660156 72.242188 20.753906 C 72.472656 20.847656 72.671875 20.984375 72.847656 21.160156 Z M 72.847656 21.160156 " fill-opacity="1" fill-rule="nonzero"/></g></g></g><g clip-path="url(#id82)"><g clip-path="url(#id83)"><g clip-path="url(#id84)"><path fill="#164e63" d="M 80.5 13.507812 C 80.675781 13.683594 80.8125 13.886719 80.90625 14.113281 C 81 14.34375 81.050781 14.582031 81.050781 14.828125 C 81.050781 15.078125 81 15.316406 80.90625 15.546875 C 80.8125 15.773438 80.675781 15.976562 80.5 16.152344 C 80.324219 16.328125 80.125 16.460938 79.894531 16.558594 C 79.664062 16.652344 79.425781 16.699219 79.179688 16.699219 C 78.929688 16.699219 78.691406 16.652344 78.464844 16.558594 C 78.234375 16.460938 78.03125 16.328125 77.855469 16.152344 C 77.679688 15.976562 77.546875 15.773438 77.453125 15.546875 C 77.355469 15.316406 77.308594 15.078125 77.308594 14.828125 C 77.308594 14.582031 77.355469 14.34375 77.453125 14.113281 C 77.546875 13.886719 77.679688 13.683594 77.855469 13.507812 C 78.03125 13.332031 78.234375 13.195312 78.464844 13.101562 C 78.691406 13.007812 78.929688 12.960938 79.179688 12.960938 C 79.425781 12.960938 79.664062 13.007812 79.894531 13.101562 C 80.125 13.195312 80.324219 13.332031 80.5 13.507812 Z M 80.5 13.507812 " fill-opacity="1" fill-rule="nonzero"/></g></g></g><g clip-path="url(#id85)"><g clip-path="url(#id86)"><g clip-path="url(#id87)"><path fill="#164e63" d="M 88.152344 5.855469 C 88.328125 6.03125 88.464844 6.230469 88.558594 6.460938 C 88.652344 6.691406 88.703125 6.929688 88.703125 7.175781 C 88.703125 7.425781 88.652344 7.664062 88.558594 7.894531 C 88.464844 8.121094 88.328125 8.324219 88.152344 8.5 C 87.976562 8.675781 87.777344 8.808594 87.546875 8.90625 C 87.316406 9 87.078125 9.046875 86.832031 9.046875 C 86.582031 9.046875 86.34375 9 86.117188 8.90625 C 85.886719 8.808594 85.683594 8.675781 85.507812 8.5 C 85.332031 8.324219 85.199219 8.121094 85.105469 7.894531 C 85.007812 7.664062 84.960938 7.425781 84.960938 7.175781 C 84.960938 6.929688 85.007812 6.691406 85.105469 6.460938 C 85.199219 6.230469 85.332031 6.03125 85.507812 5.855469 C 85.683594 5.679688 85.886719 5.542969 86.117188 5.449219 C 86.34375 5.355469 86.582031 5.308594 86.832031 5.308594 C 87.078125 5.308594 87.316406 5.355469 87.546875 5.449219 C 87.777344 5.542969 87.976562 5.679688 88.152344 5.855469 Z M 88.152344 5.855469 " fill-opacity="1" fill-rule="nonzero"/></g></g></g><g clip-path="url(#id88)"><g clip-path="url(#id89)"><g clip-path="url(#id90)"><path fill="#164e63" d="M 57.542969 51.769531 C 57.71875 51.945312 57.855469 52.148438 57.949219 52.375 C 58.042969 52.605469 58.089844 52.84375 58.089844 53.09375 C 58.089844 53.339844 58.042969 53.578125 57.949219 53.808594 C 57.855469 54.035156 57.71875 54.238281 57.542969 54.414062 C 57.367188 54.589844 57.167969 54.726562 56.9375 54.820312 C 56.707031 54.914062 56.46875 54.960938 56.222656 54.960938 C 55.972656 54.960938 55.734375 54.914062 55.507812 54.820312 C 55.277344 54.726562 55.074219 54.589844 54.898438 54.414062 C 54.722656 54.238281 54.589844 54.035156 54.492188 53.808594 C 54.398438 53.578125 54.351562 53.339844 54.351562 53.09375 C 54.351562 52.84375 54.398438 52.605469 54.492188 52.375 C 54.589844 52.148438 54.722656 51.945312 54.898438 51.769531 C 55.074219 51.59375 55.277344 51.460938 55.507812 51.363281 C 55.734375 51.269531 55.972656 51.222656 56.222656 51.222656 C 56.46875 51.222656 56.707031 51.269531 56.9375 51.363281 C 57.167969 51.460938 57.367188 51.59375 57.542969 51.769531 Z M 57.542969 51.769531 " fill-opacity="1" fill-rule="nonzero"/></g></g></g><g clip-path="url(#id91)"><g clip-path="url(#id92)"><g clip-path="url(#id93)"><path fill="#164e63" d="M 65.195312 44.117188 C 65.371094 44.292969 65.507812 44.496094 65.601562 44.722656 C 65.695312 44.953125 65.746094 45.191406 65.746094 45.4375 C 65.746094 45.6875 65.695312 45.925781 65.601562 46.15625 C 65.507812 46.382812 65.371094 46.585938 65.195312 46.761719 C 65.019531 46.9375 64.820312 47.070312 64.589844 47.167969 C 64.359375 47.261719 64.121094 47.308594 63.875 47.308594 C 63.625 47.308594 63.386719 47.261719 63.160156 47.167969 C 62.929688 47.070312 62.726562 46.9375 62.550781 46.761719 C 62.375 46.585938 62.242188 46.382812 62.144531 46.15625 C 62.050781 45.925781 62.003906 45.6875 62.003906 45.4375 C 62.003906 45.191406 62.050781 44.953125 62.144531 44.722656 C 62.242188 44.496094 62.375 44.292969 62.550781 44.117188 C 62.726562 43.941406 62.929688 43.804688 63.160156 43.710938 C 63.386719 43.617188 63.625 43.570312 63.875 43.570312 C 64.121094 43.570312 64.359375 43.617188 64.589844 43.710938 C 64.820312 43.804688 65.019531 43.941406 65.195312 44.117188 Z M 65.195312 44.117188 " fill-opacity="1" fill-rule="nonzero"/></g></g></g><g clip-path="url(#id94)"><g clip-path="url(#id95)"><g clip-path="url(#id96)"><path fill="#164e63" d="M 72.847656 36.464844 C 73.023438 36.640625 73.160156 36.84375 73.253906 37.070312 C 73.347656 37.300781 73.398438 37.539062 73.398438 37.785156 C 73.398438 38.035156 73.347656 38.273438 73.253906 38.503906 C 73.160156 38.730469 73.023438 38.933594 72.847656 39.109375 C 72.671875 39.285156 72.472656 39.417969 72.242188 39.515625 C 72.011719 39.609375 71.773438 39.65625 71.527344 39.65625 C 71.277344 39.65625 71.039062 39.609375 70.8125 39.515625 C 70.582031 39.417969 70.378906 39.285156 70.203125 39.109375 C 70.027344 38.933594 69.894531 38.730469 69.800781 38.503906 C 69.703125 38.273438 69.65625 38.035156 69.65625 37.785156 C 69.65625 37.539062 69.703125 37.300781 69.800781 37.070312 C 69.894531 36.84375 70.027344 36.640625 70.203125 36.464844 C 70.378906 36.289062 70.582031 36.152344 70.8125 36.058594 C 71.039062 35.964844 71.277344 35.917969 71.527344 35.917969 C 71.773438 35.917969 72.011719 35.964844 72.242188 36.058594 C 72.472656 36.152344 72.671875 36.289062 72.847656 36.464844 Z M 72.847656 36.464844 " fill-opacity="1" fill-rule="nonzero"/></g></g></g><g clip-path="url(#id97)"><g clip-path="url(#id98)"><g clip-path="url(#id99)"><path fill="#164e63" d="M 80.5 28.8125 C 80.675781 28.988281 80.8125 29.191406 80.90625 29.417969 C 81 29.648438 81.050781 29.886719 81.050781 30.132812 C 81.050781 30.382812 81 30.621094 80.90625 30.851562 C 80.8125 31.078125 80.675781 31.28125 80.5 31.457031 C 80.324219 31.632812 80.125 31.765625 79.894531 31.863281 C 79.664062 31.957031 79.425781 32.003906 79.179688 32.003906 C 78.929688 32.003906 78.691406 31.957031 78.464844 31.863281 C 78.234375 31.765625 78.03125 31.632812 77.855469 31.457031 C 77.679688 31.28125 77.546875 31.078125 77.453125 30.851562 C 77.355469 30.621094 77.308594 30.382812 77.308594 30.132812 C 77.308594 29.886719 77.355469 29.648438 77.453125 29.417969 C 77.546875 29.191406 77.679688 28.988281 77.855469 28.8125 C 78.03125 28.636719 78.234375 28.5 78.464844 28.40625 C 78.691406 28.3125 78.929688 28.265625 79.179688 28.265625 C 79.425781 28.265625 79.664062 28.3125 79.894531 28.40625 C 80.125 28.5 80.324219 28.636719 80.5 28.8125 Z M 80.5 28.8125 " fill-opacity="1" fill-rule="nonzero"/></g></g></g><g clip-path="url(#id100)"><g clip-path="url(#id101)"><g clip-path="url(#id102)"><path fill="#164e63" d="M 88.152344 21.160156 C 88.328125 21.335938 88.464844 21.539062 88.558594 21.765625 C 88.652344 21.996094 88.703125 22.234375 88.703125 22.480469 C 88.703125 22.730469 88.652344 22.96875 88.558594 23.199219 C 88.464844 23.425781 88.328125 23.628906 88.152344 23.804688 C 87.976562 23.980469 87.777344 24.113281 87.546875 24.210938 C 87.316406 24.304688 87.078125 24.351562 86.832031 24.351562 C 86.582031 24.351562 86.34375 24.304688 86.117188 24.210938 C 85.886719 24.113281 85.683594 23.980469 85.507812 23.804688 C 85.332031 23.628906 85.199219 23.425781 85.105469 23.199219 C 85.007812 22.96875 84.960938 22.730469 84.960938 22.480469 C 84.960938 22.234375 85.007812 21.996094 85.105469 21.765625 C 85.199219 21.539062 85.332031 21.335938 85.507812 21.160156 C 85.683594 20.984375 85.886719 20.847656 86.117188 20.753906 C 86.34375 20.660156 86.582031 20.613281 86.832031 20.613281 C 87.078125 20.613281 87.316406 20.660156 87.546875 20.753906 C 87.777344 20.847656 87.976562 20.984375 88.152344 21.160156 Z M 88.152344 21.160156 " fill-opacity="1" fill-rule="nonzero"/></g></g></g><g clip-path="url(#id103)"><g clip-path="url(#id104)"><g clip-path="url(#id105)"><path fill="#164e63" d="M 95.804688 13.507812 C 95.980469 13.683594 96.117188 13.886719 96.210938 14.113281 C 96.304688 14.34375 96.355469 14.582031 96.355469 14.828125 C 96.355469 15.078125 96.304688 15.316406 96.210938 15.546875 C 96.117188 15.773438 95.980469 15.976562 95.804688 16.152344 C 95.632812 16.328125 95.429688 16.460938 95.199219 16.558594 C 94.96875 16.652344 94.730469 16.699219 94.484375 16.699219 C 94.234375 16.699219 93.996094 16.652344 93.769531 16.558594 C 93.539062 16.460938 93.335938 16.328125 93.160156 16.152344 C 92.984375 15.976562 92.851562 15.773438 92.757812 15.546875 C 92.660156 15.316406 92.613281 15.078125 92.613281 14.828125 C 92.613281 14.582031 92.660156 14.34375 92.757812 14.113281 C 92.851562 13.886719 92.984375 13.683594 93.160156 13.507812 C 93.335938 13.332031 93.539062 13.195312 93.769531 13.101562 C 93.996094 13.007812 94.234375 12.960938 94.484375 12.960938 C 94.730469 12.960938 94.96875 13.007812 95.199219 13.101562 C 95.429688 13.195312 95.632812 13.332031 95.804688 13.507812 Z M 95.804688 13.507812 " fill-opacity="1" fill-rule="nonzero"/></g></g></g><g clip-path="url(#id106)"><g clip-path="url(#id107)"><g clip-path="url(#id108)"><path fill="#164e63" d="M 72.847656 51.769531 C 73.023438 51.945312 73.160156 52.148438 73.253906 52.375 C 73.347656 52.605469 73.398438 52.84375 73.398438 53.09375 C 73.398438 53.339844 73.347656 53.578125 73.253906 53.808594 C 73.160156 54.035156 73.023438 54.238281 72.847656 54.414062 C 72.671875 54.589844 72.472656 54.726562 72.242188 54.820312 C 72.011719 54.914062 71.773438 54.960938 71.527344 54.960938 C 71.277344 54.960938 71.039062 54.914062 70.8125 54.820312 C 70.582031 54.726562 70.378906 54.589844 70.203125 54.414062 C 70.027344 54.238281 69.894531 54.035156 69.800781 53.808594 C 69.703125 53.578125 69.65625 53.339844 69.65625 53.09375 C 69.65625 52.84375 69.703125 52.605469 69.800781 52.375 C 69.894531 52.148438 70.027344 51.945312 70.203125 51.769531 C 70.378906 51.59375 70.582031 51.460938 70.8125 51.363281 C 71.039062 51.269531 71.277344 51.222656 71.527344 51.222656 C 71.773438 51.222656 72.011719 51.269531 72.242188 51.363281 C 72.472656 51.460938 72.671875 51.59375 72.847656 51.769531 Z M 72.847656 51.769531 " fill-opacity="1" fill-rule="nonzero"/></g></g></g><g clip-path="url(#id109)"><g clip-path="url(#id110)"><g clip-path="url(#id111)"><path fill="#164e63" d="M 80.5 44.117188 C 80.675781 44.292969 80.8125 44.496094 80.90625 44.722656 C 81 44.953125 81.050781 45.191406 81.050781 45.4375 C 81.050781 45.6875 81 45.925781 80.90625 46.15625 C 80.8125 46.382812 80.675781 46.585938 80.5 46.761719 C 80.324219 46.9375 80.125 47.070312 79.894531 47.167969 C 79.664062 47.261719 79.425781 47.308594 79.179688 47.308594 C 78.929688 47.308594 78.691406 47.261719 78.464844 47.167969 C 78.234375 47.070312 78.03125 46.9375 77.855469 46.761719 C 77.679688 46.585938 77.546875 46.382812 77.453125 46.15625 C 77.355469 45.925781 77.308594 45.6875 77.308594 45.4375 C 77.308594 45.191406 77.355469 44.953125 77.453125 44.722656 C 77.546875 44.496094 77.679688 44.292969 77.855469 44.117188 C 78.03125 43.941406 78.234375 43.804688 78.464844 43.710938 C 78.691406 43.617188 78.929688 43.570312 79.179688 43.570312 C 79.425781 43.570312 79.664062 43.617188 79.894531 43.710938 C 80.125 43.804688 80.324219 43.941406 80.5 44.117188 Z M 80.5 44.117188 " fill-opacity="1" fill-rule="nonzero"/></g></g></g><g clip-path="url(#id112)"><g clip-path="url(#id113)"><g clip-path="url(#id114)"><path fill="#164e63" d="M 88.152344 36.464844 C 88.328125 36.640625 88.464844 36.84375 88.558594 37.070312 C 88.652344 37.300781 88.703125 37.539062 88.703125 37.785156 C 88.703125 38.035156 88.652344 38.273438 88.558594 38.503906 C 88.464844 38.730469 88.328125 38.933594 88.152344 39.109375 C 87.976562 39.285156 87.777344 39.417969 87.546875 39.515625 C 87.316406 39.609375 87.078125 39.65625 86.832031 39.65625 C 86.582031 39.65625 86.34375 39.609375 86.117188 39.515625 C 85.886719 39.417969 85.683594 39.285156 85.507812 39.109375 C 85.332031 38.933594 85.199219 38.730469 85.105469 38.503906 C 85.007812 38.273438 84.960938 38.035156 84.960938 37.785156 C 84.960938 37.539062 85.007812 37.300781 85.105469 37.070312 C 85.199219 36.84375 85.332031 36.640625 85.507812 36.464844 C 85.683594 36.289062 85.886719 36.152344 86.117188 36.058594 C 86.34375 35.964844 86.582031 35.917969 86.832031 35.917969 C 87.078125 35.917969 87.316406 35.964844 87.546875 36.058594 C 87.777344 36.152344 87.976562 36.289062 88.152344 36.464844 Z M 88.152344 36.464844 " fill-opacity="1" fill-rule="nonzero"/></g></g></g><g clip-path="url(#id115)"><g clip-path="url(#id116)"><g clip-path="url(#id117)"><path fill="#164e63" d="M 95.804688 28.8125 C 95.980469 28.988281 96.117188 29.191406 96.210938 29.417969 C 96.304688 29.648438 96.355469 29.886719 96.355469 30.132812 C 96.355469 30.382812 96.304688 30.621094 96.210938 30.851562 C 96.117188 31.078125 95.980469 31.28125 95.804688 31.457031 C 95.632812 31.632812 95.429688 31.765625 95.199219 31.863281 C 94.96875 31.957031 94.730469 32.003906 94.484375 32.003906 C 94.234375 32.003906 93.996094 31.957031 93.769531 31.863281 C 93.539062 31.765625 93.335938 31.632812 93.160156 31.457031 C 92.984375 31.28125 92.851562 31.078125 92.757812 30.851562 C 92.660156 30.621094 92.613281 30.382812 92.613281 30.132812 C 92.613281 29.886719 92.660156 29.648438 92.757812 29.417969 C 92.851562 29.191406 92.984375 28.988281 93.160156 28.8125 C 93.335938 28.636719 93.539062 28.5 93.769531 28.40625 C 93.996094 28.3125 94.234375 28.265625 94.484375 28.265625 C 94.730469 28.265625 94.96875 28.3125 95.199219 28.40625 C 95.429688 28.5 95.632812 28.636719 95.804688 28.8125 Z M 95.804688 28.8125 " fill-opacity="1" fill-rule="nonzero"/></g></g></g><g clip-path="url(#id118)"><g clip-path="url(#id119)"><g clip-path="url(#id120)"><path fill="#164e63" d="M 103.457031 21.160156 C 103.632812 21.335938 103.769531 21.539062 103.863281 21.765625 C 103.960938 21.996094 104.007812 22.234375 104.007812 22.480469 C 104.007812 22.730469 103.960938 22.96875 103.863281 23.199219 C 103.769531 23.425781 103.632812 23.628906 103.457031 23.804688 C 103.285156 23.980469 103.082031 24.113281 102.851562 24.210938 C 102.621094 24.304688 102.382812 24.351562 102.136719 24.351562 C 101.886719 24.351562 101.648438 24.304688 101.421875 24.210938 C 101.191406 24.113281 100.988281 23.980469 100.8125 23.804688 C 100.640625 23.628906 100.503906 23.425781 100.410156 23.199219 C 100.3125 22.96875 100.265625 22.730469 100.265625 22.480469 C 100.265625 22.234375 100.3125 21.996094 100.410156 21.765625 C 100.503906 21.539062 100.640625 21.335938 100.8125 21.160156 C 100.988281 20.984375 101.191406 20.847656 101.421875 20.753906 C 101.648438 20.660156 101.886719 20.613281 102.136719 20.613281 C 102.382812 20.613281 102.621094 20.660156 102.851562 20.753906 C 103.082031 20.847656 103.285156 20.984375 103.457031 21.160156 Z M 103.457031 21.160156 " fill-opacity="1" fill-rule="nonzero"/></g></g></g><g clip-path="url(#id121)"><g clip-path="url(#id122)"><g clip-path="url(#id123)"><path fill="#164e63" d="M 88.152344 51.769531 C 88.328125 51.945312 88.464844 52.148438 88.558594 52.375 C 88.652344 52.605469 88.703125 52.84375 88.703125 53.09375 C 88.703125 53.339844 88.652344 53.578125 88.558594 53.808594 C 88.464844 54.035156 88.328125 54.238281 88.152344 54.414062 C 87.976562 54.589844 87.777344 54.726562 87.546875 54.820312 C 87.316406 54.914062 87.078125 54.960938 86.832031 54.960938 C 86.582031 54.960938 86.34375 54.914062 86.117188 54.820312 C 85.886719 54.726562 85.683594 54.589844 85.507812 54.414062 C 85.332031 54.238281 85.199219 54.035156 85.105469 53.808594 C 85.007812 53.578125 84.960938 53.339844 84.960938 53.09375 C 84.960938 52.84375 85.007812 52.605469 85.105469 52.375 C 85.199219 52.148438 85.332031 51.945312 85.507812 51.769531 C 85.683594 51.59375 85.886719 51.460938 86.117188 51.363281 C 86.34375 51.269531 86.582031 51.222656 86.832031 51.222656 C 87.078125 51.222656 87.316406 51.269531 87.546875 51.363281 C 87.777344 51.460938 87.976562 51.59375 88.152344 51.769531 Z M 88.152344 51.769531 " fill-opacity="1" fill-rule="nonzero"/></g></g></g><g clip-path="url(#id124)"><g clip-path="url(#id125)"><g clip-path="url(#id126)"><path fill="#164e63" d="M 95.804688 44.117188 C 95.980469 44.292969 96.117188 44.496094 96.210938 44.722656 C 96.304688 44.953125 96.355469 45.191406 96.355469 45.4375 C 96.355469 45.6875 96.304688 45.925781 96.210938 46.15625 C 96.117188 46.382812 95.980469 46.585938 95.804688 46.761719 C 95.632812 46.9375 95.429688 47.070312 95.199219 47.167969 C 94.96875 47.261719 94.730469 47.308594 94.484375 47.308594 C 94.234375 47.308594 93.996094 47.261719 93.769531 47.167969 C 93.539062 47.070312 93.335938 46.9375 93.160156 46.761719 C 92.984375 46.585938 92.851562 46.382812 92.757812 46.15625 C 92.660156 45.925781 92.613281 45.6875 92.613281 45.4375 C 92.613281 45.191406 92.660156 44.953125 92.757812 44.722656 C 92.851562 44.496094 92.984375 44.292969 93.160156 44.117188 C 93.335938 43.941406 93.539062 43.804688 93.769531 43.710938 C 93.996094 43.617188 94.234375 43.570312 94.484375 43.570312 C 94.730469 43.570312 94.96875 43.617188 95.199219 43.710938 C 95.429688 43.804688 95.632812 43.941406 95.804688 44.117188 Z M 95.804688 44.117188 " fill-opacity="1" fill-rule="nonzero"/></g></g></g><g clip-path="url(#id127)"><g clip-path="url(#id128)"><g clip-path="url(#id129)"><path fill="#164e63" d="M 103.457031 36.464844 C 103.632812 36.640625 103.769531 36.84375 103.863281 37.070312 C 103.960938 37.300781 104.007812 37.539062 104.007812 37.785156 C 104.007812 38.035156 103.960938 38.273438 103.863281 38.503906 C 103.769531 38.730469 103.632812 38.933594 103.457031 39.109375 C 103.285156 39.285156 103.082031 39.417969 102.851562 39.515625 C 102.621094 39.609375 102.382812 39.65625 102.136719 39.65625 C 101.886719 39.65625 101.648438 39.609375 101.421875 39.515625 C 101.191406 39.417969 100.988281 39.285156 100.8125 39.109375 C 100.640625 38.933594 100.503906 38.730469 100.410156 38.503906 C 100.3125 38.273438 100.265625 38.035156 100.265625 37.785156 C 100.265625 37.539062 100.3125 37.300781 100.410156 37.070312 C 100.503906 36.84375 100.640625 36.640625 100.8125 36.464844 C 100.988281 36.289062 101.191406 36.152344 101.421875 36.058594 C 101.648438 35.964844 101.886719 35.917969 102.136719 35.917969 C 102.382812 35.917969 102.621094 35.964844 102.851562 36.058594 C 103.082031 36.152344 103.285156 36.289062 103.457031 36.464844 Z M 103.457031 36.464844 " fill-opacity="1" fill-rule="nonzero"/></g></g></g><g clip-path="url(#id130)"><g clip-path="url(#id131)"><g clip-path="url(#id132)"><path fill="#164e63" d="M 111.109375 28.8125 C 111.285156 28.988281 111.421875 29.191406 111.515625 29.417969 C 111.613281 29.648438 111.660156 29.886719 111.660156 30.132812 C 111.660156 30.382812 111.613281 30.621094 111.515625 30.851562 C 111.421875 31.078125 111.285156 31.28125 111.109375 31.457031 C 110.9375 31.632812 110.734375 31.765625 110.503906 31.863281 C 110.277344 31.957031 110.035156 32.003906 109.789062 32.003906 C 109.539062 32.003906 109.300781 31.957031 109.074219 31.863281 C 108.84375 31.765625 108.640625 31.632812 108.464844 31.457031 C 108.292969 31.28125 108.15625 31.078125 108.0625 30.851562 C 107.964844 30.621094 107.917969 30.382812 107.917969 30.132812 C 107.917969 29.886719 107.964844 29.648438 108.0625 29.417969 C 108.15625 29.191406 108.292969 28.988281 108.464844 28.8125 C 108.640625 28.636719 108.84375 28.5 109.074219 28.40625 C 109.300781 28.3125 109.539062 28.265625 109.789062 28.265625 C 110.035156 28.265625 110.277344 28.3125 110.503906 28.40625 C 110.734375 28.5 110.9375 28.636719 111.109375 28.8125 Z M 111.109375 28.8125 " fill-opacity="1" fill-rule="nonzero"/></g></g></g></svg>